<?xml version="1.0" encoding="UTF-8" standalone="no"?>
<!-- Created with Inkscape (http://www.inkscape.org/) -->

<svg
   xmlns:dc="http://purl.org/dc/elements/1.1/"
   xmlns:cc="http://creativecommons.org/ns#"
   xmlns:rdf="http://www.w3.org/1999/02/22-rdf-syntax-ns#"
   xmlns:svg="http://www.w3.org/2000/svg"
   xmlns="http://www.w3.org/2000/svg"
   xmlns:xlink="http://www.w3.org/1999/xlink"
   xmlns:sodipodi="http://sodipodi.sourceforge.net/DTD/sodipodi-0.dtd"
   xmlns:inkscape="http://www.inkscape.org/namespaces/inkscape"
   width="28"
   height="32"
   id="svg3001"
   version="1.1"
   inkscape:version="0.48.2 r9819"
   sodipodi:docname="tape_field.svg"
   inkscape:export-filename="/Users/nils/Documents/Studium/Teamprojekt/Teamprojekt-WS2011-12/src/pc/tape/images/tape_field.png"
   inkscape:export-xdpi="90"
   inkscape:export-ydpi="90">
  <defs
     id="defs3003">
    <linearGradient
       inkscape:collect="always"
       id="linearGradient3970">
      <stop
         style="stop-color:#000000;stop-opacity:1;"
         offset="0"
         id="stop3972" />
      <stop
         style="stop-color:#000000;stop-opacity:0;"
         offset="1"
         id="stop3974" />
    </linearGradient>
    <linearGradient
       inkscape:collect="always"
       id="linearGradient3879">
      <stop
         style="stop-color:#000000;stop-opacity:1;"
         offset="0"
         id="stop3881" />
      <stop
         style="stop-color:#000000;stop-opacity:0;"
         offset="1"
         id="stop3883" />
    </linearGradient>
    <linearGradient
       inkscape:collect="always"
       id="linearGradient3835">
      <stop
         style="stop-color:#000000;stop-opacity:1;"
         offset="0"
         id="stop3837" />
      <stop
         style="stop-color:#000000;stop-opacity:0;"
         offset="1"
         id="stop3839" />
    </linearGradient>
    <linearGradient
       id="linearGradient3799">
      <stop
         style="stop-color:#f9f9f6;stop-opacity:1;"
         offset="0"
         id="stop3801" />
      <stop
         style="stop-color:#fdf7ed;stop-opacity:1;"
         offset="1"
         id="stop3803" />
    </linearGradient>
    <filter
       inkscape:collect="always"
       id="filter3789"
       x="-0.018678392"
       width="1.0373568"
       y="-0.49559999"
       height="1.9912">
      <feGaussianBlur
         inkscape:collect="always"
         stdDeviation="0.30974999"
         id="feGaussianBlur3791" />
    </filter>
    <linearGradient
       inkscape:collect="always"
       xlink:href="#linearGradient3835"
       id="linearGradient3841"
       x1="34.967625"
       y1="1.071875"
       x2="38.008854"
       y2="3.2591307"
       gradientUnits="userSpaceOnUse"
       gradientTransform="translate(-12,0)" />
    <filter
       inkscape:collect="always"
       id="filter3875"
       x="-0.14882353"
       width="1.2976471"
       y="-0.1005298"
       height="1.2010596">
      <feGaussianBlur
         inkscape:collect="always"
         stdDeviation="0.19765625"
         id="feGaussianBlur3877" />
    </filter>
    <linearGradient
       inkscape:collect="always"
       xlink:href="#linearGradient3879"
       id="linearGradient3885"
       x1="-35.075718"
       y1="1.5671262"
       x2="-23.484291"
       y2="11.235722"
       gradientUnits="userSpaceOnUse" />
    <filter
       inkscape:collect="always"
       id="filter3895"
       x="-0.11484375"
       width="1.2296875"
       y="-0.12564103"
       height="1.2512821">
      <feGaussianBlur
         inkscape:collect="always"
         stdDeviation="0.6125"
         id="feGaussianBlur3897" />
    </filter>
    <linearGradient
       inkscape:collect="always"
       xlink:href="#linearGradient3799"
       id="linearGradient3899"
       gradientUnits="userSpaceOnUse"
       gradientTransform="matrix(1,0,0,1.010274,0.2,-0.61232877)"
       x1="11.5"
       y1="2.4000008"
       x2="12.099999"
       y2="31.200001" />
    <linearGradient
       inkscape:collect="always"
       xlink:href="#linearGradient3799"
       id="linearGradient3909"
       gradientUnits="userSpaceOnUse"
       gradientTransform="matrix(1,0,0,1.010274,40.2,-0.61232877)"
       x1="11.5"
       y1="2.4000008"
       x2="12.099999"
       y2="31.200001" />
    <linearGradient
       inkscape:collect="always"
       xlink:href="#linearGradient3799"
       id="linearGradient3913"
       gradientUnits="userSpaceOnUse"
       gradientTransform="matrix(1,0,0,1.010274,46.2,-0.61232877)"
       x1="11.5"
       y1="2.4000008"
       x2="12.099999"
       y2="31.200001" />
    <linearGradient
       inkscape:collect="always"
       xlink:href="#linearGradient3799"
       id="linearGradient3916"
       gradientUnits="userSpaceOnUse"
       gradientTransform="matrix(1,0,0,1.010274,40.2,-0.61232877)"
       x1="11.5"
       y1="2.4000008"
       x2="12.099999"
       y2="31.200001" />
    <linearGradient
       inkscape:collect="always"
       xlink:href="#linearGradient3799"
       id="linearGradient3919"
       gradientUnits="userSpaceOnUse"
       gradientTransform="matrix(1,0,0,1.010274,0.2,-0.61232877)"
       x1="11.5"
       y1="2.4000008"
       x2="12.099999"
       y2="31.200001" />
    <linearGradient
       inkscape:collect="always"
       xlink:href="#linearGradient3799"
       id="linearGradient3929"
       x1="18.099998"
       y1="2.1500003"
       x2="18.6"
       y2="27.65"
       gradientUnits="userSpaceOnUse"
       gradientTransform="matrix(1,0,0,1.0137457,0,-0.40824742)" />
    <linearGradient
       inkscape:collect="always"
       xlink:href="#linearGradient3799"
       id="linearGradient3941"
       gradientUnits="userSpaceOnUse"
       gradientTransform="matrix(1,0,0,1.0137457,0,-0.40824742)"
       x1="18.099998"
       y1="2.1500003"
       x2="18.6"
       y2="27.65" />
    <linearGradient
       inkscape:collect="always"
       xlink:href="#linearGradient3799"
       id="linearGradient3963"
       gradientUnits="userSpaceOnUse"
       gradientTransform="matrix(1,0,0,1.0137457,0,-0.40824742)"
       x1="18.099998"
       y1="2.1500003"
       x2="18.6"
       y2="27.65" />
    <linearGradient
       inkscape:collect="always"
       xlink:href="#linearGradient3970"
       id="linearGradient3976"
       x1="57.306252"
       y1="33.037498"
       x2="57.099998"
       y2="23.4375"
       gradientUnits="userSpaceOnUse"
       gradientTransform="translate(-39.8,0.9)" />
    <filter
       inkscape:collect="always"
       id="filter3978">
      <feGaussianBlur
         inkscape:collect="always"
         stdDeviation="0.86367187"
         id="feGaussianBlur3980" />
    </filter>
  </defs>
  <sodipodi:namedview
     id="base"
     pagecolor="#ffffff"
     bordercolor="#666666"
     borderopacity="1.0"
     inkscape:pageopacity="0.0"
     inkscape:pageshadow="2"
     inkscape:zoom="10"
     inkscape:cx="31.117341"
     inkscape:cy="17.833333"
     inkscape:current-layer="layer1"
     showgrid="true"
     inkscape:grid-bbox="true"
     inkscape:document-units="px"
     inkscape:window-width="1387"
     inkscape:window-height="856"
     inkscape:window-x="53"
     inkscape:window-y="0"
     inkscape:window-maximized="1" />
  <metadata
     id="metadata3006">
    <rdf:RDF>
      <cc:Work
         rdf:about="">
        <dc:format>image/svg+xml</dc:format>
        <dc:type
           rdf:resource="http://purl.org/dc/dcmitype/StillImage" />
        <dc:title></dc:title>
      </cc:Work>
    </rdf:RDF>
  </metadata>
  <g
     id="layer1"
     inkscape:label="Layer 1"
     inkscape:groupmode="layer">
    <path
       id="path3966"
       d="m -5.89375,1.0875 0,29.5 7.625,0 c 0.0846,-0.13425 0.161304,-0.294521 0.25,-0.40625 0.187599,-0.191145 0.399413,-0.25519 0.59375,-0.375 0.19026,-0.120761 0.399698,-0.16043 0.59375,-0.1875 0.207473,-0.0156 0.417481,-0.0052 0.625,0 0.230574,0.0074 0.456945,-0.0073 0.6875,0 0.220703,-8e-4 0.435553,0.0053 0.65625,0 0.196161,0.02091 0.367362,0.161581 0.5625,0.21875 0.180727,0.05141 0.381084,0.05265 0.5625,0.0625 0.236575,-0.0082 0.453353,-0.0094 0.6875,0.09375 0.235357,0.148251 0.492547,0.357579 0.71875,0.59375 l 1.25,0 c 0.24273,-0.419715 0.568092,-0.34651 0.84375,-0.375 0.25835,-0.08389 0.481017,0.129373 0.71875,0.375 l 1.9375,0 c 0.317509,-0.339038 0.665431,-0.315403 1,-0.34375 0.452472,-0.02882 0.891182,-0.03535 1.34375,-0.03125 0.435754,-0.0647 0.912365,0.126806 1.34375,-0.09375 0.163526,-0.137726 0.215,-0.530558 0.3125,-0.875 0.06016,-0.212528 0.11603,-0.327027 0.1875,-0.5 0.348903,-0.518171 0.748927,-0.04696 1.09375,0.28125 0.40563,0.406437 0.760803,0.961055 1.15625,1.4375 0.0374,0.04906 0.0875,0.07855 0.125,0.125 l 4.90625,0 c 0.05185,-0.192831 0.101255,-0.407374 0.15625,-0.59375 0.140281,-0.574378 0.30263,-1.072188 0.53125,-1.34375 0.243853,-0.217225 0.497623,-0.1843 0.75,-0.1875 0.699446,-0.04745 0.876512,0.78056 1.65625,2.125 l 6.71875,0 0,-29.5 -6.53125,0 c -0.0051,0.051973 -0.03,0.1014851 -0.03125,0.15625 -0.01606,0.098029 -0.03777,0.1900678 -0.09375,0.25 C 26.183855,2.4143179 26.050917,2.9627471 25.325,2.93125 25.072623,2.92927 24.818853,2.945162 24.575,2.80625 24.34638,2.6325829 24.184031,2.3298206 24.04375,1.9625 23.915648,1.6848685 23.778849,1.3891377 23.66875,1.0875 l -2.78125,0 C 20.658725,1.2096454 20.441479,1.3001313 20.2,1.275 20.022679,1.262918 19.846152,1.250018 19.66875,1.24375 19.389092,1.267567 19.10908,1.4379261 18.85625,1.65 18.460803,1.9546911 18.10563,2.3275786 17.7,2.5875 17.355177,2.7973949 16.955153,3.1063773 16.60625,2.775 16.53478,2.6643823 16.478911,2.5984138 16.41875,2.4625 16.32125,2.242226 16.269776,1.9568266 16.10625,1.86875 15.674865,1.7277017 15.198254,1.87886 14.7625,1.8375 14.309932,1.8401016 13.871222,1.8246808 13.41875,1.80625 13.072697,1.7875041 12.713784,1.7972742 12.3875,1.55625 12.234429,1.4279297 12.074028,1.3007863 11.91875,1.18125 11.729512,1.0858223 11.54929,1.1138065 11.35625,1.15 11.092319,1.2173287 10.821353,1.3378378 10.575,1.525 10.305271,1.7082059 10.056016,1.8984523 9.7625,1.8375 9.486842,1.8192811 9.16148,1.8559197 8.91875,1.5875 8.83701,1.4417318 8.796381,1.2477124 8.73125,1.0875 l -0.34375,0 C 8.281914,1.1541469 8.164287,1.2356388 8.075,1.275 7.70891,1.5386213 7.335344,1.8072713 6.95,1.9625 6.715853,2.028488 6.499075,2.030245 6.2625,2.025 6.081084,2.03126 5.880727,2.0234 5.7,2.05625 5.504862,2.092812 5.333661,2.1991287 5.1375,2.2125 c -0.220697,-0.00342 -0.435547,4.824e-4 -0.65625,0 -0.230555,0.00469 -0.456926,-0.00469 -0.6875,0 -0.207519,0.00326 -0.417527,0.00997 -0.625,0 C 2.974698,2.1951959 2.76526,2.1647296 2.575,2.0875 2.380663,2.0108835 2.168849,1.9597395 1.98125,1.8375 1.790908,1.6841631 1.625308,1.4786648 1.45,1.275 1.398833,1.2144378 1.344143,1.1499094 1.29375,1.0875 l -7.1875,0 z m 23.5625,0 c 0.04646,0.1001646 0.130088,0.1739991 0.1875,0.25 0.263862,0.088252 0.526336,-0.079521 0.78125,-0.25 l -0.96875,0 z m 7.875,0 c 0.07367,0.105217 0.151548,0.1725361 0.25,0.21875 0.07473,0.021718 0.143288,0.022474 0.21875,0.03125 C 26.02755,1.288306 26.02754,1.2297715 26.04375,1.18125 26.05476,1.148816 26.0631,1.118544 26.075,1.0875 l -0.53125,0 z"
       style="opacity:0.8;fill:url(#linearGradient3976);fill-opacity:1;stroke:none;filter:url(#filter3978)"
       inkscape:connector-curvature="0" />
    <path
       style="fill:url(#linearGradient3963);fill-opacity:1;stroke:none"
       d="M -6.09375 0.1875 L -6.09375 29.6875 L 1.53125 29.6875 C 1.6158445 29.55325 1.692554 29.392979 1.78125 29.28125 C 1.968849 29.090105 2.1806631 29.02606 2.375 28.90625 C 2.5652602 28.785489 2.774698 28.74582 2.96875 28.71875 C 3.1762226 28.70315 3.3862313 28.71355 3.59375 28.71875 C 3.8243244 28.72615 4.0506948 28.71145 4.28125 28.71875 C 4.5019531 28.71795 4.716803 28.72405 4.9375 28.71875 C 5.1336612 28.739658 5.3048618 28.880331 5.5 28.9375 C 5.6807272 28.988915 5.8810844 28.990149 6.0625 29 C 6.2990752 28.991791 6.5158527 28.990561 6.75 29.09375 C 6.9853565 29.242001 7.2425469 29.451329 7.46875 29.6875 L 8.71875 29.6875 C 8.9614799 29.267785 9.286842 29.34099 9.5625 29.3125 C 9.82085 29.228609 10.043517 29.441873 10.28125 29.6875 L 12.21875 29.6875 C 12.536259 29.348462 12.884181 29.372097 13.21875 29.34375 C 13.671222 29.314927 14.109932 29.3084 14.5625 29.3125 C 14.998254 29.2478 15.474865 29.439306 15.90625 29.21875 C 16.069776 29.081024 16.12125 28.688192 16.21875 28.34375 C 16.278911 28.131222 16.33478 28.016723 16.40625 27.84375 C 16.755153 27.325579 17.155177 27.796788 17.5 28.125 C 17.90563 28.531437 18.260803 29.086055 18.65625 29.5625 C 18.693655 29.611561 18.743753 29.641047 18.78125 29.6875 L 23.6875 29.6875 C 23.739352 29.494669 23.788755 29.280126 23.84375 29.09375 C 23.984031 28.519372 24.14638 28.021562 24.375 27.75 C 24.618853 27.532775 24.872623 27.5657 25.125 27.5625 C 25.824446 27.515045 26.001512 28.34306 26.78125 29.6875 L 33.5 29.6875 L 33.5 0.1875 L 26.96875 0.1875 C 26.963658 0.23947322 26.938745 0.28898505 26.9375 0.34375 C 26.92144 0.441779 26.89973 0.5338178 26.84375 0.59375 C 25.983855 1.5143179 25.850917 2.0627471 25.125 2.03125 C 24.872623 2.0292668 24.618853 2.0451623 24.375 1.90625 C 24.14638 1.7325829 23.984031 1.4298206 23.84375 1.0625 C 23.715648 0.78486848 23.578849 0.48913775 23.46875 0.1875 L 20.6875 0.1875 C 20.458725 0.30964543 20.241479 0.40013133 20 0.375 C 19.822679 0.362918 19.646152 0.350018 19.46875 0.34375 C 19.189092 0.367567 18.90908 0.5379261 18.65625 0.75 C 18.260803 1.0546911 17.90563 1.4275786 17.5 1.6875 C 17.155177 1.8973949 16.755153 2.2063773 16.40625 1.875 C 16.33478 1.7643823 16.278911 1.6984138 16.21875 1.5625 C 16.12125 1.342226 16.069776 1.0568266 15.90625 0.96875 C 15.474865 0.8277017 14.998254 0.97886 14.5625 0.9375 C 14.109932 0.9401016 13.671222 0.9246808 13.21875 0.90625 C 12.872697 0.8875041 12.513784 0.8972742 12.1875 0.65625 C 12.034429 0.5279297 11.874028 0.4007863 11.71875 0.28125 C 11.529512 0.1858223 11.34929 0.2138065 11.15625 0.25 C 10.892319 0.3173287 10.621353 0.4378378 10.375 0.625 C 10.105271 0.8082059 9.8560156 0.9984523 9.5625 0.9375 C 9.286842 0.9192811 8.9614799 0.9559197 8.71875 0.6875 C 8.6370139 0.5417318 8.5963813 0.34771236 8.53125 0.1875 L 8.1875 0.1875 C 8.0819135 0.25414691 7.9642868 0.3356388 7.875 0.375 C 7.5089101 0.6386213 7.1353444 0.9072713 6.75 1.0625 C 6.5158527 1.1284877 6.2990752 1.1302448 6.0625 1.125 C 5.8810844 1.1312589 5.6807272 1.1234033 5.5 1.15625 C 5.3048618 1.1928121 5.1336612 1.2991287 4.9375 1.3125 C 4.716803 1.309076 4.5019531 1.3129824 4.28125 1.3125 C 4.0506948 1.3171948 3.8243244 1.3078126 3.59375 1.3125 C 3.3862313 1.3157593 3.1762226 1.3224662 2.96875 1.3125 C 2.774698 1.2951959 2.5652602 1.2647296 2.375 1.1875 C 2.1806631 1.1108835 1.968849 1.0597395 1.78125 0.9375 C 1.5909083 0.7841631 1.4253081 0.5786648 1.25 0.375 C 1.1988328 0.31443783 1.1441427 0.24990938 1.09375 0.1875 L -6.09375 0.1875 z M 17.46875 0.1875 C 17.51521 0.2876646 17.598838 0.3614991 17.65625 0.4375 C 17.920112 0.52575152 18.182586 0.35797936 18.4375 0.1875 L 17.46875 0.1875 z M 25.34375 0.1875 C 25.417421 0.29271696 25.495298 0.3600361 25.59375 0.40625 C 25.668477 0.42796805 25.737038 0.42872414 25.8125 0.4375 C 25.827547 0.38830562 25.827537 0.32977145 25.84375 0.28125 C 25.854758 0.24881629 25.863103 0.21854423 25.875 0.1875 L 25.34375 0.1875 z "
       id="rect3921" />
    <path
       style="opacity:0.4;fill:none;stroke:#00db00;stroke-width:1.04112315;stroke-linecap:butt;stroke-linejoin:miter;stroke-miterlimit:4;stroke-opacity:1;stroke-dasharray:none"
       d="m 2.733333,1.9823325 0,26.5925925"
       id="path3903"
       inkscape:connector-curvature="0" />
    <path
       inkscape:connector-curvature="0"
       id="path3905"
       d="m 24.733333,2.4142282 0,25.1150468"
       style="opacity:0.4;fill:none;stroke:#c00000;stroke-width:1.0117861;stroke-linecap:butt;stroke-linejoin:miter;stroke-miterlimit:4;stroke-opacity:1;stroke-dasharray:none" />
  </g>
</svg>
