<?xml version="1.0" encoding="UTF-8" standalone="no"?>
<!-- Created with Inkscape (http://www.inkscape.org/) -->

<svg
   xmlns:dc="http://purl.org/dc/elements/1.1/"
   xmlns:cc="http://creativecommons.org/ns#"
   xmlns:rdf="http://www.w3.org/1999/02/22-rdf-syntax-ns#"
   xmlns:svg="http://www.w3.org/2000/svg"
   xmlns="http://www.w3.org/2000/svg"
   xmlns:xlink="http://www.w3.org/1999/xlink"
   xmlns:sodipodi="http://sodipodi.sourceforge.net/DTD/sodipodi-0.dtd"
   xmlns:inkscape="http://www.inkscape.org/namespaces/inkscape"
   width="32px"
   height="32px"
   id="svg2985"
   version="1.1"
   inkscape:version="0.48.2 r9819"
   sodipodi:docname="filetype_bf.svg"
   inkscape:export-filename="/Users/nils/Documents/Studium/Teamprojekt/Teamprojekt-WS2011-12/src/pc/gui/images/filetype_bf_new.png"
   inkscape:export-xdpi="135"
   inkscape:export-ydpi="135">
  <defs
     id="defs2987">
    <linearGradient
       id="linearGradient4048">
      <stop
         style="stop-color:#ffffff;stop-opacity:0.90434784;"
         offset="0"
         id="stop4050" />
      <stop
         style="stop-color:#ffffff;stop-opacity:0;"
         offset="1"
         id="stop4052" />
    </linearGradient>
    <linearGradient
       id="linearGradient3925">
      <stop
         style="stop-color:#fdd700;stop-opacity:1;"
         offset="0"
         id="stop3927" />
      <stop
         style="stop-color:#ffed87;stop-opacity:0.9217391;"
         offset="1"
         id="stop3929" />
    </linearGradient>
    <linearGradient
       id="linearGradient3790">
      <stop
         style="stop-color:#dedede;stop-opacity:1;"
         offset="0"
         id="stop3792" />
      <stop
         style="stop-color:#ffffff;stop-opacity:1;"
         offset="1"
         id="stop3794" />
    </linearGradient>
    <filter
       inkscape:collect="always"
       id="filter3838">
      <feGaussianBlur
         inkscape:collect="always"
         stdDeviation="0.496875"
         id="feGaussianBlur3840" />
    </filter>
    <linearGradient
       y2="5.1418929"
       x2="3.1559787"
       y1="10.855452"
       x1="5.9756894"
       gradientUnits="userSpaceOnUse"
       id="linearGradient6181"
       xlink:href="#linearGradient6060"
       inkscape:collect="always" />
    <linearGradient
       y2="15.812803"
       x2="34.076412"
       y1="15.812803"
       x1="1.3544291"
       gradientUnits="userSpaceOnUse"
       id="linearGradient6179"
       xlink:href="#linearGradient6060"
       inkscape:collect="always" />
    <linearGradient
       y2="53.773823"
       x2="-33.444859"
       y1="37.122627"
       x1="-46.385632"
       gradientUnits="userSpaceOnUse"
       id="linearGradient6113"
       xlink:href="#linearGradient6060"
       inkscape:collect="always" />
    <linearGradient
       y2="53.773823"
       x2="-33.444859"
       y1="37.122627"
       x1="-46.385632"
       gradientUnits="userSpaceOnUse"
       id="linearGradient6091"
       xlink:href="#linearGradient6060"
       inkscape:collect="always" />
    <linearGradient
       y2="53.773823"
       x2="-33.444859"
       y1="37.122627"
       x1="-46.385632"
       gradientUnits="userSpaceOnUse"
       id="linearGradient6058"
       xlink:href="#linearGradient6060"
       inkscape:collect="always" />
    <radialGradient
       gradientUnits="userSpaceOnUse"
       gradientTransform="matrix(1,0,0,1.0047842,0,-0.19806488)"
       r="15.301505"
       fy="41.400002"
       fx="-4.4000001"
       cy="41.400002"
       cx="-4.4000001"
       id="radialGradient5960"
       xlink:href="#linearGradient5954"
       inkscape:collect="always" />
    <linearGradient
       y2="18.668545"
       x2="4.5670791"
       y1="-14.331139"
       x1="4.606802"
       gradientUnits="userSpaceOnUse"
       id="linearGradient5871"
       xlink:href="#linearGradient5873"
       inkscape:collect="always" />
    <linearGradient
       y2="15.812803"
       x2="34.076412"
       y1="15.812803"
       x1="1.3544291"
       gradientUnits="userSpaceOnUse"
       id="linearGradient5869"
       xlink:href="#linearGradient3964"
       inkscape:collect="always" />
    <linearGradient
       gradientUnits="userSpaceOnUse"
       y2="15.812803"
       x2="34.076412"
       y1="15.812803"
       x1="1.3544291"
       id="linearGradient5867"
       xlink:href="#linearGradient3964"
       inkscape:collect="always" />
    <linearGradient
       y2="52.784645"
       x2="-33.609718"
       y1="66.798027"
       x1="-26.107443"
       gradientUnits="userSpaceOnUse"
       id="linearGradient3985"
       xlink:href="#linearGradient3805"
       inkscape:collect="always" />
    <linearGradient
       y2="53.773823"
       x2="-33.444859"
       y1="37.122627"
       x1="-46.385632"
       gradientUnits="userSpaceOnUse"
       id="linearGradient3983"
       xlink:href="#linearGradient3805"
       inkscape:collect="always" />
    <linearGradient
       y2="67.677299"
       x2="-31.551178"
       y1="26.791191"
       x1="-31.683067"
       gradientUnits="userSpaceOnUse"
       id="linearGradient3981"
       xlink:href="#linearGradient3851"
       inkscape:collect="always" />
    <linearGradient
       y2="67.677299"
       x2="-31.551178"
       y1="26.791191"
       x1="-31.683067"
       gradientUnits="userSpaceOnUse"
       id="linearGradient3979"
       xlink:href="#linearGradient3845"
       inkscape:collect="always" />
    <linearGradient
       y2="-0.8141908"
       x2="3.6236188"
       y1="21.124542"
       x1="15.405461"
       gradientUnits="userSpaceOnUse"
       id="linearGradient3957"
       xlink:href="#linearGradient3805"
       inkscape:collect="always" />
    <linearGradient
       y2="3.3048086"
       x2="-3.1674919"
       y1="-15.401481"
       x1="-5.3389568"
       gradientUnits="userSpaceOnUse"
       id="linearGradient3955"
       xlink:href="#linearGradient3805"
       inkscape:collect="always" />
    <linearGradient
       y2="18.746956"
       x2="1.6275835"
       y1="-8.9490576"
       x1="1.6993519"
       gradientUnits="userSpaceOnUse"
       id="linearGradient3951"
       xlink:href="#linearGradient3771"
       inkscape:collect="always" />
    <linearGradient
       y2="52.784645"
       x2="-33.609718"
       y1="66.798027"
       x1="-26.107443"
       gradientUnits="userSpaceOnUse"
       id="linearGradient3877"
       xlink:href="#linearGradient3805"
       inkscape:collect="always" />
    <linearGradient
       gradientUnits="userSpaceOnUse"
       y2="53.773823"
       x2="-33.444859"
       y1="37.122627"
       x1="-46.385632"
       id="linearGradient3869"
       xlink:href="#linearGradient3805"
       inkscape:collect="always" />
    <linearGradient
       gradientUnits="userSpaceOnUse"
       y2="67.677299"
       x2="-31.551178"
       y1="26.791191"
       x1="-31.683067"
       id="linearGradient3843"
       xlink:href="#linearGradient3851"
       inkscape:collect="always" />
    <linearGradient
       gradientUnits="userSpaceOnUse"
       y2="67.677299"
       x2="-31.551178"
       y1="26.791191"
       x1="-31.683067"
       id="linearGradient3835"
       xlink:href="#linearGradient3845"
       inkscape:collect="always" />
    <linearGradient
       id="linearGradient3771">
      <stop
         id="stop3773"
         offset="0"
         style="stop-color:#188d0f;stop-opacity:1;" />
      <stop
         id="stop3775"
         offset="1"
         style="stop-color:#44ea37;stop-opacity:0.76521736;" />
    </linearGradient>
    <linearGradient
       id="linearGradient3805">
      <stop
         id="stop3807"
         offset="0"
         style="stop-color:#000000;stop-opacity:1;" />
      <stop
         id="stop3809"
         offset="1"
         style="stop-color:#000000;stop-opacity:0;" />
    </linearGradient>
    <linearGradient
       id="linearGradient3964">
      <stop
         style="stop-color:#094216;stop-opacity:1;"
         offset="0"
         id="stop3966" />
      <stop
         style="stop-color:#ffffff;stop-opacity:0.15217391;"
         offset="1"
         id="stop3968" />
    </linearGradient>
    <linearGradient
       id="linearGradient3845">
      <stop
         style="stop-color:#0f4a8d;stop-opacity:1;"
         offset="0"
         id="stop3847" />
      <stop
         style="stop-color:#135eb3;stop-opacity:0.51304346;"
         offset="1"
         id="stop3849" />
    </linearGradient>
    <linearGradient
       id="linearGradient3851">
      <stop
         id="stop3853"
         offset="0"
         style="stop-color:#091042;stop-opacity:1;" />
      <stop
         id="stop3855"
         offset="1"
         style="stop-color:#ffffff;stop-opacity:1;" />
    </linearGradient>
    <marker
       style="overflow:visible;"
       id="Arrow1Lend"
       refX="0.0"
       refY="0.0"
       orient="auto"
       inkscape:stockid="Arrow1Lend">
      <path
         transform="scale(0.8) rotate(180) translate(12.5,0)"
         style="fill-rule:evenodd;stroke:#000000;stroke-width:1.0pt;marker-start:none;"
         d="M 0.0,0.0 L 5.0,-5.0 L -12.5,0.0 L 5.0,5.0 L 0.0,0.0 z "
         id="path4014" />
    </marker>
    <marker
       style="overflow:visible"
       id="TriangleOutL"
       refX="0.0"
       refY="0.0"
       orient="auto"
       inkscape:stockid="TriangleOutL">
      <path
         transform="scale(0.8)"
         style="fill-rule:evenodd;stroke:#000000;stroke-width:1.0pt;marker-start:none"
         d="M 5.77,0.0 L -2.88,5.0 L -2.88,-5.0 L 5.77,0.0 z "
         id="path4154" />
    </marker>
    <marker
       style="overflow:visible;"
       id="Arrow2Mend"
       refX="0.0"
       refY="0.0"
       orient="auto"
       inkscape:stockid="Arrow2Mend">
      <path
         transform="scale(0.6) rotate(180) translate(0,0)"
         d="M 8.7185878,4.0337352 L -2.2072895,0.016013256 L 8.7185884,-4.0017078 C 6.9730900,-1.6296469 6.9831476,1.6157441 8.7185878,4.0337352 z "
         style="font-size:12.0;fill-rule:evenodd;stroke-width:0.62500000;stroke-linejoin:round;"
         id="path4038" />
    </marker>
    <marker
       style="overflow:visible;"
       id="Arrow2Send"
       refX="0.0"
       refY="0.0"
       orient="auto"
       inkscape:stockid="Arrow2Send">
      <path
         transform="scale(0.3) rotate(180) translate(-2.3,0)"
         d="M 8.7185878,4.0337352 L -2.2072895,0.016013256 L 8.7185884,-4.0017078 C 6.9730900,-1.6296469 6.9831476,1.6157441 8.7185878,4.0337352 z "
         style="font-size:12.0;fill-rule:evenodd;stroke-width:0.62500000;stroke-linejoin:round;"
         id="path4044" />
    </marker>
    <marker
       style="overflow:visible;"
       id="Arrow2Lend"
       refX="0.0"
       refY="0.0"
       orient="auto"
       inkscape:stockid="Arrow2Lend">
      <path
         transform="scale(1.1) rotate(180) translate(1,0)"
         d="M 8.7185878,4.0337352 L -2.2072895,0.016013256 L 8.7185884,-4.0017078 C 6.9730900,-1.6296469 6.9831476,1.6157441 8.7185878,4.0337352 z "
         style="font-size:12.0;fill-rule:evenodd;stroke-width:0.62500000;stroke-linejoin:round;"
         id="path4032" />
    </marker>
    <linearGradient
       id="linearGradient5873">
      <stop
         id="stop5875"
         offset="0"
         style="stop-color:#094216;stop-opacity:1;" />
      <stop
         id="stop5877"
         offset="1"
         style="stop-color:#ffffff;stop-opacity:0;" />
    </linearGradient>
    <linearGradient
       id="linearGradient5954">
      <stop
         id="stop5956"
         offset="0"
         style="stop-color:#f8f6c8;stop-opacity:1;" />
      <stop
         id="stop5958"
         offset="1"
         style="stop-color:#faf9e0;stop-opacity:0;" />
    </linearGradient>
    <linearGradient
       id="linearGradient6060">
      <stop
         style="stop-color:#ffffff;stop-opacity:1;"
         offset="0"
         id="stop6062" />
      <stop
         style="stop-color:#ffffff;stop-opacity:0;"
         offset="1"
         id="stop6064" />
    </linearGradient>
    <filter
       inkscape:collect="always"
       id="filter5599">
      <feGaussianBlur
         inkscape:collect="always"
         stdDeviation="0.25578641"
         id="feGaussianBlur5601" />
    </filter>
    <clipPath
       id="clipPath378"
       clipPathUnits="userSpaceOnUse">
      <path
         id="path380"
         d="m 0.06,792 612,0 0,-792 -612,0 0,792 z" />
    </clipPath>
    <clipPath
       id="clipPath372"
       clipPathUnits="userSpaceOnUse">
      <path
         id="path374"
         d="M 0,792 612,792 612,0 0,0 0,792 z" />
    </clipPath>
    <clipPath
       id="clipPath308"
       clipPathUnits="userSpaceOnUse">
      <path
         id="path310"
         d="m 0.06,792 612,0 0,-792 -612,0 0,792 z" />
    </clipPath>
    <clipPath
       id="clipPath302"
       clipPathUnits="userSpaceOnUse">
      <path
         id="path304"
         d="M 0,792 612,792 612,0 0,0 0,792 z" />
    </clipPath>
    <clipPath
       id="clipPath296"
       clipPathUnits="userSpaceOnUse">
      <path
         id="path298"
         clip-rule="evenodd"
         d="m 72.5,525.97 191.63,0 0,-169.97 -191.63,0 0,169.97 z" />
    </clipPath>
    <clipPath
       id="clipPath286"
       clipPathUnits="userSpaceOnUse">
      <path
         id="path288"
         d="m 142.182,427.487 c 0,0 -3.384,3.384 -3.384,7.415 0,3.532 0.215,5.043 2.09,6.122 2.774,1.596 8.427,6.336 11.812,6.552 3.384,0.216 13.538,-0.499 17.569,-5.325 4.032,-4.827 2.373,-7.78 1.942,-9.074 -0.432,-1.294 -4.53,-3.317 -5.973,-5.043 -1.443,-1.725 -6.282,-5.805 -10.518,-6.188 -6.405,-0.58 -13.538,5.541 -13.538,5.541" />
    </clipPath>
    <clipPath
       id="clipPath266"
       clipPathUnits="userSpaceOnUse">
      <path
         id="path268"
         d="m 0.06,792 612,0 0,-792 -612,0 0,792 z" />
    </clipPath>
    <clipPath
       id="clipPath260"
       clipPathUnits="userSpaceOnUse">
      <path
         id="path262"
         d="M 0,792 612,792 612,0 0,0 0,792 z" />
    </clipPath>
    <clipPath
       id="clipPath254"
       clipPathUnits="userSpaceOnUse">
      <path
         id="path256"
         clip-rule="evenodd"
         d="m 72.5,525.97 191.63,0 0,-169.97 -191.63,0 0,169.97 z" />
    </clipPath>
    <clipPath
       id="clipPath78"
       clipPathUnits="userSpaceOnUse">
      <path
         id="path80"
         d="m 0.06,792 612,0 0,-792 -612,0 0,792 z" />
    </clipPath>
    <clipPath
       id="clipPath72"
       clipPathUnits="userSpaceOnUse">
      <path
         id="path74"
         d="M 0,792 612,792 612,0 0,0 0,792 z" />
    </clipPath>
    <clipPath
       id="clipPath60"
       clipPathUnits="userSpaceOnUse">
      <path
         id="path62"
         d="m 0.06,792 612,0 0,-792 -612,0 0,792 z" />
    </clipPath>
    <clipPath
       id="clipPath54"
       clipPathUnits="userSpaceOnUse">
      <path
         id="path56"
         d="M 0,792 612,792 612,0 0,0 0,792 z" />
    </clipPath>
    <clipPath
       id="clipPath48"
       clipPathUnits="userSpaceOnUse">
      <path
         id="path50"
         clip-rule="evenodd"
         d="m 498.6,63 49.34,0 0,-41.64 -49.34,0 0,41.64 z" />
    </clipPath>
    <clipPath
       id="clipPath26"
       clipPathUnits="userSpaceOnUse">
      <path
         id="path28"
         d="m 0.06,792 612,0 0,-792 -612,0 0,792 z" />
    </clipPath>
    <clipPath
       id="clipPath20"
       clipPathUnits="userSpaceOnUse">
      <path
         id="path22"
         d="M 0,792 612,792 612,0 0,0 0,792 z" />
    </clipPath>
    <inkscape:perspective
       id="perspective10"
       inkscape:persp3d-origin="0.5 : 0.33333333 : 1"
       inkscape:vp_z="1 : 0.5 : 1"
       inkscape:vp_y="0 : 1000 : 0"
       inkscape:vp_x="0 : 0.5 : 1"
       sodipodi:type="inkscape:persp3d" />
    <filter
       inkscape:collect="always"
       id="filter3939">
      <feGaussianBlur
         inkscape:collect="always"
         stdDeviation="0.24857536"
         id="feGaussianBlur3941" />
    </filter>
    <linearGradient
       inkscape:collect="always"
       xlink:href="#linearGradient3790"
       id="linearGradient4036"
       gradientUnits="userSpaceOnUse"
       gradientTransform="matrix(0.91855411,0,0,0.91855411,2.3266682,2.6315491)"
       x1="12.864523"
       y1="1.5"
       x2="12.849764"
       y2="30.571428" />
    <linearGradient
       inkscape:collect="always"
       xlink:href="#linearGradient3790"
       id="linearGradient4038"
       gradientUnits="userSpaceOnUse"
       gradientTransform="matrix(0.91855411,0,0,0.91855411,2.2034653,2.9727264)"
       x1="22.802023"
       y1="4.2276783"
       x2="19.349764"
       y2="12.013393" />
    <linearGradient
       inkscape:collect="always"
       xlink:href="#linearGradient3925"
       id="linearGradient4040"
       gradientUnits="userSpaceOnUse"
       x1="-13.908719"
       y1="-11.091607"
       x2="-13.888815"
       y2="3.8231382" />
    <filter
       inkscape:collect="always"
       id="filter4060">
      <feGaussianBlur
         inkscape:collect="always"
         stdDeviation="0.49715071"
         id="feGaussianBlur4062" />
    </filter>
    <linearGradient
       inkscape:collect="always"
       xlink:href="#linearGradient4048"
       id="linearGradient4064"
       x1="-8.3888922"
       y1="3.0392292"
       x2="-19.683825"
       y2="-9.788475"
       gradientUnits="userSpaceOnUse" />
  </defs>
  <sodipodi:namedview
     id="base"
     pagecolor="#ffffff"
     bordercolor="#666666"
     borderopacity="1.0"
     inkscape:pageopacity="0.0"
     inkscape:pageshadow="2"
     inkscape:zoom="20"
     inkscape:cx="15.47578"
     inkscape:cy="18.317824"
     inkscape:current-layer="g3947"
     showgrid="true"
     inkscape:grid-bbox="true"
     inkscape:document-units="px"
     inkscape:window-width="1389"
     inkscape:window-height="856"
     inkscape:window-x="51"
     inkscape:window-y="0"
     inkscape:window-maximized="1" />
  <metadata
     id="metadata2990">
    <rdf:RDF>
      <cc:Work
         rdf:about="">
        <dc:format>image/svg+xml</dc:format>
        <dc:type
           rdf:resource="http://purl.org/dc/dcmitype/StillImage" />
        <dc:title></dc:title>
      </cc:Work>
    </rdf:RDF>
  </metadata>
  <g
     id="layer1"
     inkscape:label="Layer 1"
     inkscape:groupmode="layer">
    <g
       id="g4014"
       transform="translate(0.25,-0.1)">
      <path
         transform="matrix(0.94043747,0,0,0.94043747,2.4358116,2.7406925)"
         style="fill:#5e5e5e;fill-opacity:1;stroke:none;filter:url(#filter3838)"
         d="m 18,1.75 -12.59375,0 0,28.5 21.1875,0 0,-19.75 C 23.865516,6.9508788 20.604398,4.2501161 18,1.75 z"
         id="path3824"
         inkscape:connector-curvature="0"
         sodipodi:nodetypes="cccccc" />
      <path
         sodipodi:nodetypes="cccccc"
         inkscape:connector-curvature="0"
         id="path3001"
         d="m 18.860642,4.2390188 -11.5680406,0 0,26.1787922 19.4618656,0 0,-18.141444 C 24.248436,9.0163074 21.252923,6.5355107 18.860642,4.2390188 z"
         style="fill:url(#linearGradient4036);fill-opacity:1;stroke:#6e6e6e;stroke-width:0.27556625;stroke-linecap:butt;stroke-linejoin:miter;stroke-miterlimit:4;stroke-opacity:0.47058824;stroke-dasharray:none" />
      <path
         transform="matrix(0.91595294,0.06907875,-0.06907875,0.91595294,2.9080226,0.8237247)"
         style="opacity:0.4;fill:#000000;fill-opacity:1;stroke:none;filter:url(#filter5599)"
         d="m 26.948633,12.424318 c 0.420786,-4.526562 -4.783547,-4.1835034 -8.57865,-5.5926571 0.156256,2.6704964 -0.229942,1.759923 -0.283375,4.4332211 2.814293,-0.248282 6.088197,-0.151453 8.862025,1.159436 z"
         id="path3806"
         inkscape:connector-curvature="0"
         sodipodi:nodetypes="cccc" />
      <path
         sodipodi:nodetypes="cccc"
         inkscape:connector-curvature="0"
         id="rect2993"
         d="M 26.710726,12.150886 C 24.15912,9.1082954 21.570716,6.8008343 18.900647,4.3505576 c -0.125609,2.3959437 -0.24112,5.1620716 -0.24112,7.6026764 1.914659,-0.662622 5.174497,-1.051506 8.051199,0.197652 z"
         style="fill:url(#linearGradient4038);fill-opacity:1;stroke:#6e6e6e;stroke-width:0.27556625;stroke-miterlimit:4;stroke-opacity:0.47058824;stroke-dasharray:none" />
      <g
         id="g12"
         inkscape:label="58294main_The.Brain.in.Space"
         transform="matrix(0.0881469,0,0,-0.0881469,5.1468525,63.807666)">
        <g
           transform="translate(-31.56542,13.702818)"
           style="stroke-width:4.16828775;stroke-miterlimit:4;stroke-dasharray:none"
           id="g250">
          <g
             style="stroke-width:4.16828775;stroke-miterlimit:4;stroke-dasharray:none"
             id="g252"
             clip-path="url(#clipPath254)">
            <g
               style="stroke-width:4.16828775;stroke-miterlimit:4;stroke-dasharray:none"
               id="g258"
               clip-path="url(#clipPath260)">
              <g
                 style="stroke-width:4.16828775;stroke-miterlimit:4;stroke-dasharray:none"
                 id="g264"
                 clip-path="url(#clipPath266)">
                <path
                   inkscape:connector-curvature="0"
                   id="path274"
                   d="m 133.04,427.703 c -1.17029,6.00251 -9.3751,4.56169 -12.027,9.276 m 10.153,0.013 c 0.90084,1.80437 2.92145,3.42941 2.481,5.663 m -4.422,2.764 c 0.22688,4.31433 -3.43362,7.31062 -6.311,9.923 m 0.189,7.644 c -1.44954,-10.0686 -13.53567,-12.22289 -17.93098,-20.40325 -1.46517,-2.2607 -6.790518,-4.42206 -7.41802,-0.30475 m 7.779,5.945 c -5.34219,1.63931 -7.092296,8.74091 -4.584,13.32 m 12.432,-0.215 c -1.56167,-2.57672 -5.57871,-2.71809 -7.605,-0.647 m 1.267,3.168 c 9.34734,13.70858 24.90007,23.76792 41.74387,24.28048 2.08783,-0.40209 4.12252,-1.20419 5.82613,-2.49345 m -7.388,-4.866 c 5.6206,8.69205 17.19833,4.86452 25.403,3.55901 m -21.803,-12.633 c -10.47396,4.00934 -20.36644,-10.24735 -15.047,-19.252 m 0.647,13.711 c -5.11495,7.62455 -20.63594,3.68335 -19.20082,-6.31 m 0.62,6.526 -1.34935,0.86118 -1.34765,0.86382 m 13.066,2.09 c 4.56045,3.48109 0.99512,10.78638 5.663,14.183 m -1.847,-15.262 c -1.55168,1.61122 -1.61344,4.0542 -1.51,6.148 m 13.537,10.193 c -3.0324,-3.80757 -3.76215,-9.65924 -0.862,-13.752 m 9.357,2.521 c -1.41618,-0.95288 -1.69758,-3.62114 0,-4.422 m -6.404,-10.624 c -1.70824,1.61892 -3.36075,3.53738 -3.776,5.932 m 39.562,22.003 c -0.53494,-5.39918 -8.02711,-4.87066 -9.708,-9.491 m 5.892,6.755 c 2.32709,8.8232 -8.88854,17.32808 -16.75397,12.69495 -4.93999,-1.6949 -12.33091,2.01118 -15.17503,-4.06695 m 24.944,1.308 c -8.83303,0.8483 -17.52815,-4.39309 -26.28136,-1.50248 -6.81954,0.22604 -14.48859,-1.65235 -18.57964,-7.57152 m -5.474,-5.757 c -7.66796,-1.72113 -14.60491,-7.12377 -17.529,-14.50601 m 4.207,7.374 C 95.000456,465.4693 87.940028,447.8818 95.846444,435.16277 c 1.735345,-1.94561 4.125373,-3.45199 6.774736,-3.64374 m -3.641,19.225 c -3.019423,-1.84142 -6.148397,-4.4876 -6.526,-8.251 m 9.695,-5.501 c -0.83736,-10.12125 5.12145,-20.51848 14.43385,-24.67207 3.47526,-0.74753 7.90242,0.70955 9.02715,4.39507 m -6.903,0.62 c 9.81496,-3.68649 5.21913,17.07753 -2.16749,9.70181 -4.10821,-0.36471 -8.64528,1.3246 -10.77651,5.02019 m -8.873,1.12 c -4.167857,-3.73703 0.08705,-9.24112 2.913,-12.242 m -3.776,4.611 c -1.508789,-0.29256 -2.372467,-2.31407 -1.402,-3.56 m 5.218,-4.435 c 2.21545,1.18659 4.84414,0.77768 7.173,0.215 m -9.263,-3.6 c 4.98142,2.52224 9.0056,-4.93301 13.969,-2.372 m 5.268,-7.108 c -4.87492,0.11591 -8.08546,5.42105 -13.115,4.775 m 37.229,10.179 c -6.46434,-6.25153 -6.99557,-18.11095 -0.0685,-24.22813 1.24066,-0.45613 2.60117,-0.29146 3.84345,-0.74087 m -4.094,-5.488 c 2.04487,-0.93107 5.17087,-0.36287 5.878,2.05 m 3.3,-0.324 c 6.52922,3.2132 0.72253,15.30397 9.492,16.017 m -6.324,1.268 c 1.53576,-0.50728 2.27282,-2.72533 1.079,-3.937 m -4.032,12.862 c -5.01636,-0.73352 -9.68126,-6.01629 -7.982,-11.217"
                   style="fill:none;stroke:#b01e1e;stroke-width:4.16828775;stroke-linecap:butt;stroke-linejoin:miter;stroke-miterlimit:4;stroke-opacity:1;stroke-dasharray:none" />
                <path
                   inkscape:connector-curvature="0"
                   id="path276"
                   d="m 163.716,408.409 c 5.56519,2.07054 6.75516,-9.34415 1.079,-8.844 m 8.643,16.475 c 2.70744,-2.61316 0.24621,-6.29543 -0.755,-9.06 m -45.98,0.203 c -10.41597,-7.08922 -26.786963,-1.75774 -30.852324,10.21803 -4.301741,7.15254 -7.202041,16.35659 -3.611676,24.40397 m 4.22,20.17 c 6.17791,11.9434 18.44309,18.52506 28.087,27.25242 15.43088,7.6829 33.2043,12.04073 50.387,8.66458 m 8.442,-93.878 c 4.04282,3.1274 10.06305,4.46656 14.617,1.618 m -18.797,5.73 c 1.74355,-0.43454 3.16298,1.37827 3.129,2.966 m 6.809,5.744 c 9.31355,-7.06427 23.1464,-2.84231 29.987,5.66196 m -12.633,-9.262 c 3.31163,-1.22875 4.97054,-5.39383 3.721,-8.629 m 2.4,29.149 c -4.43734,-4.49948 -6.85488,-14.43101 -15.047,-12.242 m 26.644,-7.415 c 1.09516,9.13549 -5.5493,16.38199 -8.91045,24.26163 5.05753,7.92566 -9.69073,16.56771 -14.27629,8.50884 -0.59017,-0.96199 -0.55414,-2.13635 -0.70622,-3.21747 m -4.194,20.13 c 0.69732,-2.73415 1.04293,-5.61355 0.539,-8.413 m 10.194,-2.602 c 5.80917,7.3212 -4.01344,19.34948 -12.34374,15.08198 -3.18734,-2.0593 -2.46765,-6.32524 -3.89026,-9.36598 m 5.501,11.635 c 1.6913,0.58775 2.54019,3.119 1.186,4.423 m -7.74,-2.117 c -9.18457,0.88878 -18.47647,-6.59675 -19.07439,-15.90276 -0.97725,-4.15009 -3.64811,-7.94846 -3.36161,-12.35624 m 17.542,28.69 c 7.23624,0.23027 5.92774,13.08972 -0.863,12.728 m 6.769,-6.971 c 5.03712,4.49339 17.27989,-2.83512 11.218,-9.11399 m 7.43,-3.411 c 15.6162,3.17013 30.37177,-12.71924 28.41692,-27.97844 0.33617,-5.64931 1.28748,-12.37646 6.64008,-15.54156 m -6.97,7.589 c -1.15208,1.12685 -3.27959,-0.37457 -2.912,-1.833 m -7.241,-0.256 c 8.64735,-2.42953 7.28377,-16.96272 -1.187,-18.606 m 7.376,8.669 c 0.83403,1.71271 3.59334,2.79964 5.016,1.186 m 5.205,-6.179 c -8.43633,4.17264 -8.95453,15.52125 -16.8326,20.3045 -2.0468,-0.16541 -3.36123,-2.28136 -3.3124,-4.1885 m 2.292,4.288 c -1.57493,5.16759 -5.0055,9.44781 -7.821,13.967 m 12.648,-8.925 c -5.59027,2.98585 -2.33608,14.25701 -10.517,13.752 m -5.111,-2.737 c 6.19876,-7.41177 5.85025,13.45591 0.216,5.501 m 8.063,5.299 c 4.25292,-5.36909 11.35197,-12.27735 6.95768,-19.63 m 1.038,9.262 c 1.4346,0.81229 4.36605,1.86149 5.07,-0.432 m -20.482,23.257 c 9.56622,-1.48706 14.03147,-11.10976 20.89971,-16.72281 5.12741,-6.08728 3.73976,-14.8328 7.57729,-21.51222 m -2.264,11.81 c 6.274,-2.49708 6.01208,-10.55371 4.854,-16.017"
                   style="fill:none;stroke:#b01e1e;stroke-width:4.16828775;stroke-linecap:butt;stroke-linejoin:miter;stroke-miterlimit:4;stroke-opacity:1;stroke-dasharray:none" />
                <path
                   inkscape:connector-curvature="0"
                   id="path278"
                   d="m 240.115,436.129 c 4.77253,-1.53988 10.06941,-3.73024 12.244,-8.628 m -4.895,0.849 c 1.01457,-2.37336 5.44673,-8.96218 0,-8.898 m -33.844,60.886 c -3.56269,-1.56778 -3.89314,3.42703 -5.016,5.447 m 9.695,-6.525 c -6.80103,9.27043 -19.48501,9.65281 -28.19012,16.26904 -3.74934,1.55435 -8.33175,2.27047 -11.99088,0.071 m 5.473,-4.462 c 3.95239,-4.19863 10.37601,1.50668 14.401,-2.481 m -5.043,1.402 c -1.68087,-1.09034 -4.13175,-2.91455 -3.02,-5.231 m 4.247,0.984 c 3.69399,0.46403 7.62847,1.58431 11.218,0 M 119.071,449.45 c -1.58244,-3.57922 -10.23679,-2.5818 -7.982,-7.981"
                   style="fill:none;stroke:#b01e1e;stroke-width:4.16828775;stroke-linecap:butt;stroke-linejoin:miter;stroke-miterlimit:4;stroke-opacity:1;stroke-dasharray:none" />
              </g>
            </g>
          </g>
        </g>
        <g
           transform="translate(-31.56542,13.702818)"
           style="stroke:#b01e1e;stroke-width:4.16828775;stroke-miterlimit:4;stroke-opacity:1;stroke-dasharray:none"
           id="g282">
          <g
             style="stroke:#b01e1e;stroke-width:4.16828775;stroke-miterlimit:4;stroke-opacity:1;stroke-dasharray:none"
             id="g284"
             clip-path="url(#clipPath286)">
            <path
               inkscape:connector-curvature="0"
               id="path290"
               d="m 149.747,441.671 c 6.33592,1.56004 16.16072,3.2144 19.039,-4.638"
               style="fill:none;stroke:#b01e1e;stroke-width:4.16828775;stroke-linecap:butt;stroke-linejoin:miter;stroke-miterlimit:4;stroke-opacity:1;stroke-dasharray:none" />
          </g>
        </g>
        <g
           style="stroke:#b01e1e;stroke-width:4.16828775;stroke-miterlimit:4;stroke-opacity:1;stroke-dasharray:none"
           transform="translate(-45.268238,23.001159)"
           id="g292">
          <g
             style="stroke:#b01e1e;stroke-width:4.16828775;stroke-miterlimit:4;stroke-opacity:1;stroke-dasharray:none"
             id="g294"
             clip-path="url(#clipPath296)">
            <g
               style="stroke:#b01e1e;stroke-width:4.16828775;stroke-miterlimit:4;stroke-opacity:1;stroke-dasharray:none"
               id="g300"
               clip-path="url(#clipPath302)">
              <g
                 style="stroke:#b01e1e;stroke-width:4.16828775;stroke-miterlimit:4;stroke-opacity:1;stroke-dasharray:none"
                 transform="translate(13.947511,-11.011193)"
                 id="g306"
                 clip-path="url(#clipPath308)">
                <path
                   inkscape:connector-curvature="0"
                   id="path312"
                   d="m 142.182,427.487 c -6.24056,6.55634 -0.84627,19.27165 8.1945,19.37268 8.05331,3.30681 18.49174,-0.99787 21.45819,-9.28339 C 171.24154,423.91544 150.99612,417.23092 142.182,427.487 z m 32.766,49.036 c -10.18031,-0.53081 -17.49834,-10.84696 -17.28016,-20.55092 -1.11728,-5.66989 -2.70834,-11.24494 -4.72484,-16.66008 m 15.236,-36.161 c 6.45624,-8.51085 -8.06088,-12.1924 -13.63674,-15.26187 -13.65679,-5.58413 -31.58668,7.91646 -27.43035,22.82379 3.10721,9.97142 12.68103,15.94923 21.23757,20.90324 14.69564,7.80017 32.11081,11.42027 48.51881,7.66894 4.02701,0.11388 8.40976,1.20857 11.06071,4.47392 M 174.085,499.2 c 9.05103,2.63665 17.31515,-3.36213 25.89736,-5.10296 24.37828,-11.46789 44.93549,-33.11105 51.18638,-59.76392 5.94098,-9.02012 -2.92799,-22.99806 -13.65095,-21.24664 -12.05566,-0.53197 -24.72628,-2.34893 -34.79524,-9.51557 -7.75883,-3.58362 -16.99199,-5.76868 -25.21055,-2.34665"
                   style="fill:none;stroke:#b01e1e;stroke-width:4.16828775;stroke-linecap:butt;stroke-linejoin:miter;stroke-miterlimit:4;stroke-opacity:1;stroke-dasharray:none" />
              </g>
            </g>
          </g>
        </g>
      </g>
    </g>
    <g
       id="g3947"
       transform="translate(-25.3,-0.35)">
      <path
         sodipodi:type="star"
         style="opacity:0.5;fill:#000000;fill-opacity:1;fill-rule:nonzero;stroke:none;filter:url(#filter3939)"
         id="path3933"
         sodipodi:sides="6"
         sodipodi:cx="-13.3"
         sodipodi:cy="-2.5999999"
         sodipodi:r1="8.579627"
         sodipodi:r2="4.2898135"
         sodipodi:arg1="0.85964162"
         sodipodi:arg2="1.3832404"
         inkscape:flatsided="false"
         inkscape:rounded="0"
         inkscape:randomized="0"
         d="M -7.7000002,3.9000001 -12.500129,1.6145827 -16.129165,5.4997423 -16.55,0.20000007 -21.729165,-1.0002577 -17.349871,-4.0145825 -18.9,-9.0999999 l 4.800129,2.2854174 3.629036,-3.8851595 0.420835,5.2997421 5.1791649,1.2002578 -4.379294,3.0143248 z"
         transform="matrix(0.76542861,-0.04261189,0.04261189,0.76542861,43.944141,8.9128522)" />
      <path
         transform="matrix(0.76542861,-0.04261189,0.04261189,0.76542861,43.744141,8.6628522)"
         d="M -7.7000002,3.9000001 -12.500129,1.6145827 -16.129165,5.4997423 -16.55,0.20000007 -21.729165,-1.0002577 -17.349871,-4.0145825 -18.9,-9.0999999 l 4.800129,2.2854174 3.629036,-3.8851595 0.420835,5.2997421 5.1791649,1.2002578 -4.379294,3.0143248 z"
         inkscape:randomized="0"
         inkscape:rounded="0"
         inkscape:flatsided="false"
         sodipodi:arg2="1.3832404"
         sodipodi:arg1="0.85964162"
         sodipodi:r2="4.2898135"
         sodipodi:r1="8.579627"
         sodipodi:cy="-2.5999999"
         sodipodi:cx="-13.3"
         sodipodi:sides="6"
         id="path3117"
         style="fill:url(#linearGradient4040);fill-opacity:1;fill-rule:nonzero;stroke:#6e6e6e;stroke-width:0.26088755;stroke-miterlimit:4;stroke-opacity:0.47058823999999999;stroke-dasharray:none"
         sodipodi:type="star" />
      <path
         sodipodi:type="star"
         style="opacity:1;fill:url(#linearGradient4064);fill-opacity:1;fill-rule:nonzero;stroke:none;filter:url(#filter4060)"
         id="path4042"
         sodipodi:sides="6"
         sodipodi:cx="-13.3"
         sodipodi:cy="-2.5999999"
         sodipodi:r1="8.579627"
         sodipodi:r2="4.2898135"
         sodipodi:arg1="0.85964162"
         sodipodi:arg2="1.3832404"
         inkscape:flatsided="false"
         inkscape:rounded="0"
         inkscape:randomized="0"
         d="M -7.7000002,3.9000001 -12.500129,1.6145827 -16.129165,5.4997423 -16.55,0.20000007 -21.729165,-1.0002577 -17.349871,-4.0145825 -18.9,-9.0999999 l 4.800129,2.2854174 3.629036,-3.8851595 0.420835,5.2997421 5.1791649,1.2002578 -4.379294,3.0143248 z"
         transform="matrix(0.5452344,-0.03035354,0.03035354,0.5452344,40.808686,8.668558)" />
    </g>
  </g>
</svg>
