<?xml version="1.0" encoding="UTF-8" standalone="no"?>
<!-- Created with Inkscape (http://www.inkscape.org/) -->

<svg
   xmlns:dc="http://purl.org/dc/elements/1.1/"
   xmlns:cc="http://creativecommons.org/ns#"
   xmlns:rdf="http://www.w3.org/1999/02/22-rdf-syntax-ns#"
   xmlns:svg="http://www.w3.org/2000/svg"
   xmlns="http://www.w3.org/2000/svg"
   xmlns:xlink="http://www.w3.org/1999/xlink"
   xmlns:sodipodi="http://sodipodi.sourceforge.net/DTD/sodipodi-0.dtd"
   xmlns:inkscape="http://www.inkscape.org/namespaces/inkscape"
   width="800"
   height="600"
   id="svg2"
   version="1.1"
   inkscape:version="0.48.2 r9819"
   sodipodi:docname="title.svg"
   inkscape:export-filename="/Users/nils/Documents/Studium/Teamprojekt/Teamprojekt-WS2011-12/documentation/User Guide/title.png"
   inkscape:export-xdpi="90"
   inkscape:export-ydpi="90">
  <defs
     id="defs4">
    <inkscape:perspective
       sodipodi:type="inkscape:persp3d"
       inkscape:vp_x="-49.396847 : 373.15957 : 1"
       inkscape:vp_y="0 : 920.32888 : 0"
       inkscape:vp_z="840.25439 : 440.09259 : 1"
       inkscape:persp3d-origin="469.33397 : 278.33781 : 1"
       id="perspective4302" />
    <linearGradient
       id="linearGradient4228">
      <stop
         style="stop-color:#007097;stop-opacity:0.47450981;"
         offset="0"
         id="stop4230" />
      <stop
         style="stop-color:#007097;stop-opacity:1;"
         offset="1"
         id="stop4232" />
    </linearGradient>
    <filter
       id="filter6191"
       inkscape:collect="always">
      <feGaussianBlur
         id="feGaussianBlur6193"
         stdDeviation="0.75660425"
         inkscape:collect="always" />
    </filter>
    <filter
       id="filter6183"
       inkscape:collect="always">
      <feGaussianBlur
         id="feGaussianBlur6185"
         stdDeviation="0.44250365"
         inkscape:collect="always" />
    </filter>
    <linearGradient
       y2="15.812803"
       x2="34.076412"
       y1="15.812803"
       x1="1.3544291"
       gradientUnits="userSpaceOnUse"
       id="linearGradient6179"
       xlink:href="#linearGradient6060"
       inkscape:collect="always" />
    <filter
       id="filter6135"
       inkscape:collect="always">
      <feGaussianBlur
         id="feGaussianBlur6137"
         stdDeviation="0.57"
         inkscape:collect="always" />
    </filter>
    <filter
       id="filter6131"
       inkscape:collect="always">
      <feGaussianBlur
         id="feGaussianBlur6133"
         stdDeviation="0.57"
         inkscape:collect="always" />
    </filter>
    <linearGradient
       y2="53.773823"
       x2="-33.444859"
       y1="37.122627"
       x1="-46.385632"
       gradientUnits="userSpaceOnUse"
       id="linearGradient6091"
       xlink:href="#linearGradient6060"
       inkscape:collect="always" />
    <linearGradient
       y2="15.812803"
       x2="34.076412"
       y1="15.812803"
       x1="1.3544291"
       gradientUnits="userSpaceOnUse"
       id="linearGradient5869"
       xlink:href="#linearGradient3964"
       inkscape:collect="always" />
    <linearGradient
       gradientUnits="userSpaceOnUse"
       y2="15.812803"
       x2="34.076412"
       y1="15.812803"
       x1="1.3544291"
       id="linearGradient5867"
       xlink:href="#linearGradient3964"
       inkscape:collect="always" />
    <filter
       height="1.1992915"
       y="-0.099645757"
       width="1.230122"
       x="-0.11506101"
       id="filter3929"
       inkscape:collect="always">
      <feGaussianBlur
         id="feGaussianBlur3931"
         stdDeviation="1.3127608"
         inkscape:collect="always" />
    </filter>
    <linearGradient
       y2="52.784645"
       x2="-33.609718"
       y1="66.798027"
       x1="-26.107443"
       gradientUnits="userSpaceOnUse"
       id="linearGradient3877"
       xlink:href="#linearGradient3805"
       inkscape:collect="always" />
    <filter
       height="1.2136"
       y="-0.1068"
       width="1.2136"
       x="-0.1068"
       id="filter3871"
       inkscape:collect="always">
      <feGaussianBlur
         id="feGaussianBlur3873"
         stdDeviation="1.691"
         inkscape:collect="always" />
    </filter>
    <linearGradient
       gradientUnits="userSpaceOnUse"
       y2="53.773823"
       x2="-33.444859"
       y1="37.122627"
       x1="-46.385632"
       id="linearGradient3869"
       xlink:href="#linearGradient3805"
       inkscape:collect="always" />
    <linearGradient
       gradientUnits="userSpaceOnUse"
       y2="67.677299"
       x2="-31.551178"
       y1="26.791191"
       x1="-31.683067"
       id="linearGradient3843"
       xlink:href="#linearGradient3851"
       inkscape:collect="always" />
    <linearGradient
       gradientUnits="userSpaceOnUse"
       y2="67.677299"
       x2="-31.551178"
       y1="26.791191"
       x1="-31.683067"
       id="linearGradient3835"
       xlink:href="#linearGradient3845"
       inkscape:collect="always" />
    <filter
       color-interpolation-filters="sRGB"
       height="1.1992536"
       y="-0.09962678"
       width="1.2300782"
       x="-0.1150391"
       id="filter3862"
       inkscape:collect="always">
      <feGaussianBlur
         id="feGaussianBlur3864"
         stdDeviation="1.3125108"
         inkscape:collect="always" />
    </filter>
    <linearGradient
       id="linearGradient3771">
      <stop
         id="stop3773"
         offset="0"
         style="stop-color:#188d0f;stop-opacity:1;" />
      <stop
         id="stop3775"
         offset="1"
         style="stop-color:#44ea37;stop-opacity:0.76521736;" />
    </linearGradient>
    <linearGradient
       id="linearGradient3805">
      <stop
         id="stop3807"
         offset="0"
         style="stop-color:#000000;stop-opacity:1;" />
      <stop
         id="stop3809"
         offset="1"
         style="stop-color:#000000;stop-opacity:0;" />
    </linearGradient>
    <linearGradient
       id="linearGradient3964">
      <stop
         style="stop-color:#094216;stop-opacity:1;"
         offset="0"
         id="stop3966" />
      <stop
         style="stop-color:#ffffff;stop-opacity:0.15217391;"
         offset="1"
         id="stop3968" />
    </linearGradient>
    <linearGradient
       id="linearGradient3845">
      <stop
         style="stop-color:#0f4a8d;stop-opacity:1;"
         offset="0"
         id="stop3847" />
      <stop
         style="stop-color:#135eb3;stop-opacity:0.51304346;"
         offset="1"
         id="stop3849" />
    </linearGradient>
    <linearGradient
       id="linearGradient3851">
      <stop
         id="stop3853"
         offset="0"
         style="stop-color:#091042;stop-opacity:1;" />
      <stop
         id="stop3855"
         offset="1"
         style="stop-color:#ffffff;stop-opacity:1;" />
    </linearGradient>
    <marker
       style="overflow:visible;"
       id="Arrow1Lend"
       refX="0.0"
       refY="0.0"
       orient="auto"
       inkscape:stockid="Arrow1Lend">
      <path
         transform="scale(0.8) rotate(180) translate(12.5,0)"
         style="fill-rule:evenodd;stroke:#000000;stroke-width:1.0pt;marker-start:none;"
         d="M 0.0,0.0 L 5.0,-5.0 L -12.5,0.0 L 5.0,5.0 L 0.0,0.0 z "
         id="path4014" />
    </marker>
    <marker
       style="overflow:visible"
       id="TriangleOutL"
       refX="0.0"
       refY="0.0"
       orient="auto"
       inkscape:stockid="TriangleOutL">
      <path
         transform="scale(0.8)"
         style="fill-rule:evenodd;stroke:#000000;stroke-width:1.0pt;marker-start:none"
         d="M 5.77,0.0 L -2.88,5.0 L -2.88,-5.0 L 5.77,0.0 z "
         id="path4154" />
    </marker>
    <marker
       style="overflow:visible;"
       id="Arrow2Mend"
       refX="0.0"
       refY="0.0"
       orient="auto"
       inkscape:stockid="Arrow2Mend">
      <path
         transform="scale(0.6) rotate(180) translate(0,0)"
         d="M 8.7185878,4.0337352 L -2.2072895,0.016013256 L 8.7185884,-4.0017078 C 6.9730900,-1.6296469 6.9831476,1.6157441 8.7185878,4.0337352 z "
         style="font-size:12.0;fill-rule:evenodd;stroke-width:0.62500000;stroke-linejoin:round;"
         id="path4038" />
    </marker>
    <marker
       style="overflow:visible;"
       id="Arrow2Send"
       refX="0.0"
       refY="0.0"
       orient="auto"
       inkscape:stockid="Arrow2Send">
      <path
         transform="scale(0.3) rotate(180) translate(-2.3,0)"
         d="M 8.7185878,4.0337352 L -2.2072895,0.016013256 L 8.7185884,-4.0017078 C 6.9730900,-1.6296469 6.9831476,1.6157441 8.7185878,4.0337352 z "
         style="font-size:12.0;fill-rule:evenodd;stroke-width:0.62500000;stroke-linejoin:round;"
         id="path4044" />
    </marker>
    <marker
       style="overflow:visible;"
       id="Arrow2Lend"
       refX="0.0"
       refY="0.0"
       orient="auto"
       inkscape:stockid="Arrow2Lend">
      <path
         transform="scale(1.1) rotate(180) translate(1,0)"
         d="M 8.7185878,4.0337352 L -2.2072895,0.016013256 L 8.7185884,-4.0017078 C 6.9730900,-1.6296469 6.9831476,1.6157441 8.7185878,4.0337352 z "
         style="font-size:12.0;fill-rule:evenodd;stroke-width:0.62500000;stroke-linejoin:round;"
         id="path4032" />
    </marker>
    <linearGradient
       id="linearGradient5873">
      <stop
         id="stop5875"
         offset="0"
         style="stop-color:#094216;stop-opacity:1;" />
      <stop
         id="stop5877"
         offset="1"
         style="stop-color:#ffffff;stop-opacity:0;" />
    </linearGradient>
    <linearGradient
       id="linearGradient5954">
      <stop
         id="stop5956"
         offset="0"
         style="stop-color:#f8f6c8;stop-opacity:1;" />
      <stop
         id="stop5958"
         offset="1"
         style="stop-color:#faf9e0;stop-opacity:0;" />
    </linearGradient>
    <linearGradient
       id="linearGradient6060">
      <stop
         style="stop-color:#ffffff;stop-opacity:1;"
         offset="0"
         id="stop6062" />
      <stop
         style="stop-color:#ffffff;stop-opacity:0;"
         offset="1"
         id="stop6064" />
    </linearGradient>
    <radialGradient
       inkscape:collect="always"
       xlink:href="#linearGradient4228"
       id="radialGradient4234"
       cx="415"
       cy="754.36218"
       fx="415"
       fy="754.36218"
       r="440"
       gradientTransform="matrix(0.934573,0,0,0.69449036,18.061295,222.88916)"
       gradientUnits="userSpaceOnUse" />
    <filter
       id="filter4782"
       inkscape:label="Glow"
       inkscape:menu="Shadows and Glows"
       inkscape:menu-tooltip="Glow of object's own color at the edges"
       color-interpolation-filters="sRGB">
      <feGaussianBlur
         id="feGaussianBlur4784"
         stdDeviation="5"
         result="result91" />
      <feComposite
         id="feComposite4786"
         in2="result91"
         in="SourceGraphic"
         operator="over" />
    </filter>
  </defs>
  <sodipodi:namedview
     id="base"
     pagecolor="#ffffff"
     bordercolor="#666666"
     borderopacity="1.0"
     inkscape:pageopacity="0.0"
     inkscape:pageshadow="2"
     inkscape:zoom="1"
     inkscape:cx="437"
     inkscape:cy="320"
     inkscape:document-units="px"
     inkscape:current-layer="layer1"
     showgrid="false"
     inkscape:window-width="1386"
     inkscape:window-height="856"
     inkscape:window-x="54"
     inkscape:window-y="0"
     inkscape:window-maximized="1" />
  <metadata
     id="metadata7">
    <rdf:RDF>
      <cc:Work
         rdf:about="">
        <dc:format>image/svg+xml</dc:format>
        <dc:type
           rdf:resource="http://purl.org/dc/dcmitype/StillImage" />
        <dc:title></dc:title>
      </cc:Work>
    </rdf:RDF>
  </metadata>
  <g
     inkscape:label="Layer 1"
     inkscape:groupmode="layer"
     id="layer1"
     transform="translate(0,-452.36218)">
    <rect
       style="fill:url(#radialGradient4234);fill-opacity:1;stroke:none"
       id="rect2985"
       width="822.42426"
       height="611.15149"
       x="-5.3030305"
       y="441.21066" />
    <g
       transform="matrix(5.3511318,0,0,5.3511318,212.70405,721.98891)"
       inkscape:label="Layer 1"
       id="layer1-9"
       style="filter:url(#filter4782);fill:none;fill-opacity:1;stroke:#ffffff;stroke-opacity:1">
      <g
         transform="translate(0.43333333,0.43333333)"
         id="g4861"
         style="fill:none;fill-opacity:1;stroke:#ffffff;stroke-opacity:1">
        <g
           transform="translate(-0.6,-0.3)"
           id="g5838"
           style="fill:none;fill-opacity:1;stroke:#ffffff;stroke-opacity:1">
          <g
             id="g4854"
             style="fill:none;fill-opacity:1;stroke:#ffffff;stroke-opacity:1" />
        </g>
      </g>
      <g
         id="g4978"
         transform="matrix(1.1884605,0,0,1.1884605,-3.2312611,5.6604461)">
        <g
           style="fill:none;stroke:#ffffff;stroke-opacity:1"
           transform="matrix(1.3284947,0,0,1.3284947,19.614807,30.519133)"
           id="g6093">
          <g
             style="fill:none;stroke:#ffffff;stroke-opacity:1"
             id="g6095">
            <path
               id="path6097"
               d="m -13.166668,48.333332 c 0,10.49341 -8.50659,19 -19,19 -10.49341,0 -19,-8.50659 -19,-19 0,-10.49341 8.50659,-19 19,-19 10.49341,0 19,8.50659 19,19 z"
               style="fill:none;stroke:#ffffff;stroke-width:0.79134399;stroke-linecap:butt;stroke-linejoin:miter;stroke-miterlimit:4;stroke-opacity:1"
               transform="matrix(0.7582038,0,0,0.7582038,40.555555,-52.479851)"
               inkscape:connector-curvature="0" />
          </g>
          <path
             id="path6099"
             d="m -13.166668,48.333332 c 0,10.49341 -8.50659,19 -19,19 -10.49341,0 -19,-8.50659 -19,-19 0,-10.49341 8.50659,-19 19,-19 10.49341,0 19,8.50659 19,19 z"
             style="fill:none;stroke:#ffffff;stroke-width:0.79134399;stroke-linecap:butt;stroke-linejoin:miter;stroke-miterlimit:4;stroke-opacity:1;filter:url(#filter3871)"
             transform="matrix(0.7582038,0,0,0.7582038,42.180555,-50.729851)"
             inkscape:connector-curvature="0" />
          <path
             id="path6101"
             d="m -13.166668,48.333332 c 0,10.49341 -8.50659,19 -19,19 -10.49341,0 -19,-8.50659 -19,-19 0,-10.49341 8.50659,-19 19,-19 10.49341,0 19,8.50659 19,19 z"
             style="fill:none;stroke:#ffffff;stroke-width:0.79134399;stroke-linecap:butt;stroke-linejoin:miter;stroke-miterlimit:4;stroke-opacity:1;filter:url(#filter3871)"
             transform="matrix(0.7582038,0,0,0.7582038,41.305555,-52.229851)"
             inkscape:connector-curvature="0" />
          <path
             id="path6103"
             d="m -13.166668,48.333332 c 0,10.49341 -8.50659,19 -19,19 -10.49341,0 -19,-8.50659 -19,-19 0,-10.49341 8.50659,-19 19,-19 10.49341,0 19,8.50659 19,19 z"
             style="fill:none;stroke:#ffffff;stroke-width:0.79134399;stroke-linecap:butt;stroke-linejoin:miter;stroke-miterlimit:4;stroke-opacity:1;filter:url(#filter6131)"
             transform="matrix(-0.69184766,0,0,-0.69184766,-5.8553221,17.662319)"
             inkscape:connector-curvature="0" />
        </g>
        <g
           style="fill:none;stroke:#ffffff;stroke-opacity:1"
           id="g3969"
           transform="matrix(1.3284947,0,0,1.3284947,-1.3851932,8.9191331)">
          <g
             style="fill:none;stroke:#ffffff;stroke-opacity:1"
             id="g3971">
            <path
               id="path3973"
               d="m -13.166668,48.333332 c 0,10.49341 -8.50659,19 -19,19 -10.49341,0 -19,-8.50659 -19,-19 0,-10.49341 8.50659,-19 19,-19 10.49341,0 19,8.50659 19,19 z"
               style="fill:none;stroke:#ffffff;stroke-width:0.79134399;stroke-linecap:butt;stroke-linejoin:miter;stroke-miterlimit:4;stroke-opacity:1"
               transform="matrix(0.7582038,0,0,0.7582038,40.555555,-52.479851)"
               inkscape:connector-curvature="0" />
          </g>
          <path
             id="path3975"
             d="m -13.166668,48.333332 c 0,10.49341 -8.50659,19 -19,19 -10.49341,0 -19,-8.50659 -19,-19 0,-10.49341 8.50659,-19 19,-19 10.49341,0 19,8.50659 19,19 z"
             style="fill:none;stroke:#ffffff;stroke-width:0.79134399;stroke-linecap:butt;stroke-linejoin:miter;stroke-miterlimit:4;stroke-opacity:1;filter:url(#filter3871)"
             transform="matrix(0.7582038,0,0,0.7582038,42.180555,-50.729851)"
             inkscape:connector-curvature="0" />
          <path
             id="path3977"
             d="m -13.166668,48.333332 c 0,10.49341 -8.50659,19 -19,19 -10.49341,0 -19,-8.50659 -19,-19 0,-10.49341 8.50659,-19 19,-19 10.49341,0 19,8.50659 19,19 z"
             style="fill:none;stroke:#ffffff;stroke-width:0.79134399;stroke-linecap:butt;stroke-linejoin:miter;stroke-miterlimit:4;stroke-opacity:1;filter:url(#filter3871)"
             transform="matrix(0.7582038,0,0,0.7582038,41.305555,-52.229851)"
             inkscape:connector-curvature="0" />
          <path
             id="path6056"
             d="m -13.166668,48.333332 c 0,10.49341 -8.50659,19 -19,19 -10.49341,0 -19,-8.50659 -19,-19 0,-10.49341 8.50659,-19 19,-19 10.49341,0 19,8.50659 19,19 z"
             style="fill:none;stroke:#ffffff;stroke-width:0.79134399;stroke-linecap:butt;stroke-linejoin:miter;stroke-miterlimit:4;stroke-opacity:1;filter:url(#filter6135)"
             transform="matrix(-0.69184766,0,0,-0.69184766,-5.8553221,17.662319)"
             inkscape:connector-curvature="0" />
        </g>
        <g
           style="fill:none;stroke:#ffffff;stroke-opacity:1"
           id="g3933"
           transform="matrix(1.3419938,0,0,1.3419938,-1.5916267,-41.471783)">
          <g
             style="fill:none;stroke:#ffffff;stroke-opacity:1"
             transform="translate(7.7748993,15.353864)"
             id="g3989">
            <path
               inkscape:connector-curvature="0"
               id="path2993"
               d="M 19.415756,1.5475951 5.7246452,9.4521618 -7.966465,17.356728 l 0,-15.8091333 0,-15.8091327 13.691111,7.904567 z"
               inkscape:transform-center-x="-4.2869701"
               style="fill:none;stroke:#ffffff;stroke-opacity:1"
               transform="matrix(0.93936211,0,0,0.93936211,12.771023,14.649718)" />
            <path
               inkscape:connector-curvature="0"
               id="path3848"
               d="M 19.415756,1.5475951 5.7246452,9.4521618 -7.966465,17.356728 l 0,-15.8091333 0,-15.8091327 13.691111,7.904567 z"
               inkscape:transform-center-x="-4.0396887"
               style="fill:none;stroke:#ffffff;stroke-width:1.12971663;stroke-miterlimit:4;stroke-opacity:1;filter:url(#filter3862)"
               transform="matrix(0.88517773,0,0,0.88517773,12.648092,14.442906)" />
          </g>
          <g
             style="fill:none;stroke:#ffffff;stroke-opacity:1"
             id="g3913"
             transform="translate(28.284579,-6.1364559)">
            <path
               inkscape:connector-curvature="0"
               id="path3915"
               d="M 19.415756,1.5475951 5.7246452,9.4521618 -7.966465,17.356728 l 0,-15.8091333 0,-15.8091327 13.691111,7.904567 z"
               inkscape:transform-center-x="-4.2869701"
               style="fill:none;stroke:#ffffff;stroke-opacity:1;filter:url(#filter3929)"
               transform="matrix(0.93936211,0,0,0.93936211,-4.4983374,35.524718)" />
          </g>
          <g
             id="g5851"
             transform="matrix(0.94410151,0,0,0.94410151,35.299081,16.29184)"
             style="fill:none;stroke:#ffffff;stroke-opacity:1">
            <path
               inkscape:connector-curvature="0"
               id="path5853"
               d="M 19.415756,1.5475951 5.7246452,9.4521618 -7.966465,17.356728 l 0,-15.8091333 0,-15.8091327 13.691111,7.904567 z"
               inkscape:transform-center-x="-4.2869701"
               style="fill:none;stroke:#ffffff;stroke-opacity:1"
               transform="matrix(0.93936211,0,0,0.93936211,-15.545055,14.649718)" />
          </g>
          <g
             style="fill:none;stroke:#ffffff;stroke-width:0.78927946;stroke-miterlimit:4;stroke-opacity:1;stroke-dasharray:none"
             transform="matrix(0.94410151,0,0,0.94410151,35.572306,16.267001)"
             id="g6175">
            <path
               inkscape:connector-curvature="0"
               id="path6177"
               d="M 19.415756,1.5475951 5.7246452,9.4521618 -7.966465,17.356728 l 0,-15.8091333 0,-15.8091327 13.691111,7.904567 z"
               inkscape:transform-center-x="-3.67189"
               style="opacity:0.7;fill:none;stroke:#ffffff;stroke-width:1.00364506;stroke-opacity:1;filter:url(#filter6183)"
               transform="matrix(0.80458554,0,0,0.80458554,-15.405904,14.65274)" />
          </g>
        </g>
      </g>
    </g>
  </g>
</svg>
