<?xml version="1.0" encoding="UTF-8" standalone="no"?>
<!-- Created with Inkscape (http://www.inkscape.org/) -->

<svg
   xmlns:dc="http://purl.org/dc/elements/1.1/"
   xmlns:cc="http://creativecommons.org/ns#"
   xmlns:rdf="http://www.w3.org/1999/02/22-rdf-syntax-ns#"
   xmlns:svg="http://www.w3.org/2000/svg"
   xmlns="http://www.w3.org/2000/svg"
   xmlns:xlink="http://www.w3.org/1999/xlink"
   xmlns:sodipodi="http://sodipodi.sourceforge.net/DTD/sodipodi-0.dtd"
   xmlns:inkscape="http://www.inkscape.org/namespaces/inkscape"
   width="28"
   height="32"
   id="svg3001"
   version="1.1"
   inkscape:version="0.48.2 r9819"
   sodipodi:docname="tape_field.svg"
   inkscape:export-filename="/Users/nils/Documents/Studium/Teamprojekt/Teamprojekt-WS2011-12/src/pc/tape/images/styles/new/tape_field.png"
   inkscape:export-xdpi="90"
   inkscape:export-ydpi="90">
  <defs
     id="defs3003">
    <linearGradient
       inkscape:collect="always"
       id="linearGradient3927">
      <stop
         style="stop-color:#000000;stop-opacity:1;"
         offset="0"
         id="stop3929" />
      <stop
         style="stop-color:#000000;stop-opacity:0;"
         offset="1"
         id="stop3931" />
    </linearGradient>
    <linearGradient
       inkscape:collect="always"
       id="linearGradient3908">
      <stop
         style="stop-color:#000000;stop-opacity:1;"
         offset="0"
         id="stop3910" />
      <stop
         style="stop-color:#000000;stop-opacity:0;"
         offset="1"
         id="stop3912" />
    </linearGradient>
    <linearGradient
       inkscape:collect="always"
       id="linearGradient3892">
      <stop
         style="stop-color:#000000;stop-opacity:1;"
         offset="0"
         id="stop3894" />
      <stop
         style="stop-color:#000000;stop-opacity:0;"
         offset="1"
         id="stop3896" />
    </linearGradient>
    <linearGradient
       inkscape:collect="always"
       id="linearGradient3836">
      <stop
         style="stop-color:#000000;stop-opacity:1;"
         offset="0"
         id="stop3838" />
      <stop
         style="stop-color:#000000;stop-opacity:0;"
         offset="1"
         id="stop3840" />
    </linearGradient>
    <linearGradient
       inkscape:collect="always"
       id="linearGradient3835">
      <stop
         style="stop-color:#000000;stop-opacity:1;"
         offset="0"
         id="stop3837" />
      <stop
         style="stop-color:#000000;stop-opacity:0;"
         offset="1"
         id="stop3839" />
    </linearGradient>
    <linearGradient
       id="linearGradient3799">
      <stop
         style="stop-color:#f9f9f2;stop-opacity:1;"
         offset="0"
         id="stop3801" />
      <stop
         style="stop-color:#fdf7ed;stop-opacity:1;"
         offset="1"
         id="stop3803" />
    </linearGradient>
    <linearGradient
       inkscape:collect="always"
       xlink:href="#linearGradient3799"
       id="linearGradient3769"
       gradientUnits="userSpaceOnUse"
       x1="11.5"
       y1="2.4000008"
       x2="12.099999"
       y2="31.200001"
       gradientTransform="matrix(1,0,0,1.010274,0.2,-0.61232877)" />
    <linearGradient
       inkscape:collect="always"
       xlink:href="#linearGradient3799"
       id="linearGradient3820"
       gradientUnits="userSpaceOnUse"
       gradientTransform="matrix(1,0,0,1.010274,0.2,-0.61232877)"
       x1="11.5"
       y1="2.4000008"
       x2="12.099999"
       y2="31.200001" />
    <linearGradient
       inkscape:collect="always"
       xlink:href="#linearGradient3799"
       id="linearGradient3784"
       x1="8.3000002"
       y1="4.8999996"
       x2="8.1999998"
       y2="26.4"
       gradientUnits="userSpaceOnUse"
       gradientTransform="translate(0.1,0.10000002)" />
    <linearGradient
       inkscape:collect="always"
       xlink:href="#linearGradient3835"
       id="linearGradient3788"
       gradientUnits="userSpaceOnUse"
       gradientTransform="matrix(0.7904762,0,0,0.07142857,3.012381,29.864285)"
       x1="8.3000002"
       y1="4.8999996"
       x2="8.1999998"
       y2="26.4" />
    <linearGradient
       inkscape:collect="always"
       xlink:href="#linearGradient3799"
       id="linearGradient3817"
       gradientUnits="userSpaceOnUse"
       gradientTransform="translate(42.1,0.10000002)"
       x1="8.3000002"
       y1="4.8999996"
       x2="8.1999998"
       y2="26.4" />
    <linearGradient
       inkscape:collect="always"
       xlink:href="#linearGradient3799"
       id="linearGradient3822"
       gradientUnits="userSpaceOnUse"
       gradientTransform="translate(0.1,0.10000002)"
       x1="8.3000002"
       y1="4.8999996"
       x2="8.1999998"
       y2="26.4" />
    <linearGradient
       inkscape:collect="always"
       xlink:href="#linearGradient3799"
       id="linearGradient3825"
       gradientUnits="userSpaceOnUse"
       gradientTransform="translate(0.1,0.10000002)"
       x1="8.3000002"
       y1="4.8999996"
       x2="8.1999998"
       y2="26.4" />
    <linearGradient
       inkscape:collect="always"
       xlink:href="#linearGradient3799"
       id="linearGradient3828"
       gradientUnits="userSpaceOnUse"
       gradientTransform="translate(0.1,0.10000002)"
       x1="8.3000002"
       y1="4.8999996"
       x2="8.1999998"
       y2="26.4" />
    <linearGradient
       inkscape:collect="always"
       xlink:href="#linearGradient3799"
       id="linearGradient3831"
       gradientUnits="userSpaceOnUse"
       gradientTransform="translate(0.1,0.10000002)"
       x1="8.3000002"
       y1="4.8999996"
       x2="8.1999998"
       y2="26.4" />
    <linearGradient
       inkscape:collect="always"
       xlink:href="#linearGradient3836"
       id="linearGradient3842"
       x1="25.166224"
       y1="3.3943429"
       x2="28.099558"
       y2="4.1276765"
       gradientUnits="userSpaceOnUse" />
    <filter
       inkscape:collect="always"
       id="filter3844">
      <feGaussianBlur
         inkscape:collect="always"
         stdDeviation="0.089999997"
         id="feGaussianBlur3846" />
    </filter>
    <linearGradient
       inkscape:collect="always"
       xlink:href="#linearGradient3836"
       id="linearGradient3850"
       gradientUnits="userSpaceOnUse"
       x1="25.166224"
       y1="3.3943429"
       x2="28.099558"
       y2="4.1276765"
       gradientTransform="translate(0,18)" />
    <linearGradient
       inkscape:collect="always"
       xlink:href="#linearGradient3799"
       id="linearGradient3862"
       gradientUnits="userSpaceOnUse"
       gradientTransform="translate(80.1,0.10000002)"
       x1="8.3000002"
       y1="4.8999996"
       x2="8.1999998"
       y2="26.4" />
    <linearGradient
       inkscape:collect="always"
       xlink:href="#linearGradient3799"
       id="linearGradient3874"
       gradientUnits="userSpaceOnUse"
       gradientTransform="translate(78.1,0.10000002)"
       x1="8.3000002"
       y1="4.8999996"
       x2="8.1999998"
       y2="26.4" />
    <linearGradient
       inkscape:collect="always"
       xlink:href="#linearGradient3799"
       id="linearGradient3877"
       gradientUnits="userSpaceOnUse"
       gradientTransform="translate(42.1,0.10000002)"
       x1="8.3000002"
       y1="4.8999996"
       x2="8.1999998"
       y2="26.4" />
    <linearGradient
       inkscape:collect="always"
       xlink:href="#linearGradient3799"
       id="linearGradient3880"
       gradientUnits="userSpaceOnUse"
       gradientTransform="translate(42.1,0.10000002)"
       x1="8.3000002"
       y1="4.8999996"
       x2="8.1999998"
       y2="26.4" />
    <linearGradient
       inkscape:collect="always"
       xlink:href="#linearGradient3799"
       id="linearGradient3883"
       gradientUnits="userSpaceOnUse"
       gradientTransform="translate(42.1,0.10000002)"
       x1="8.3000002"
       y1="4.8999996"
       x2="8.1999998"
       y2="26.4" />
    <linearGradient
       inkscape:collect="always"
       xlink:href="#linearGradient3799"
       id="linearGradient3886"
       gradientUnits="userSpaceOnUse"
       gradientTransform="translate(0.1,0.10000002)"
       x1="8.3000002"
       y1="4.8999996"
       x2="8.1999998"
       y2="26.4" />
    <linearGradient
       inkscape:collect="always"
       xlink:href="#linearGradient3892"
       id="linearGradient3898"
       x1="23.299559"
       y1="24.06101"
       x2="26.699558"
       y2="25.461012"
       gradientUnits="userSpaceOnUse" />
    <filter
       inkscape:collect="always"
       id="filter3900">
      <feGaussianBlur
         inkscape:collect="always"
         stdDeviation="0.16000005"
         id="feGaussianBlur3902" />
    </filter>
    <filter
       inkscape:collect="always"
       id="filter3904">
      <feGaussianBlur
         inkscape:collect="always"
         stdDeviation="0.16"
         id="feGaussianBlur3906" />
    </filter>
    <linearGradient
       inkscape:collect="always"
       xlink:href="#linearGradient3908"
       id="linearGradient3914"
       x1="23.715559"
       y1="4.5943422"
       x2="27.883556"
       y2="5.9276757"
       gradientUnits="userSpaceOnUse" />
    <linearGradient
       inkscape:collect="always"
       xlink:href="#linearGradient3908"
       id="linearGradient3919"
       gradientUnits="userSpaceOnUse"
       x1="23.715559"
       y1="4.5943422"
       x2="26.550222"
       y2="4.7276759" />
    <filter
       inkscape:collect="always"
       id="filter3923">
      <feGaussianBlur
         inkscape:collect="always"
         stdDeviation="0.10833334"
         id="feGaussianBlur3925" />
    </filter>
    <linearGradient
       inkscape:collect="always"
       xlink:href="#linearGradient3927"
       id="linearGradient3933"
       x1="23.106222"
       y1="5.9443426"
       x2="26.559555"
       y2="6.1443424"
       gradientUnits="userSpaceOnUse" />
    <filter
       inkscape:collect="always"
       id="filter3951"
       x="-0.025973218"
       width="1.0519464"
       y="-0.28743697"
       height="1.5748739">
      <feGaussianBlur
         inkscape:collect="always"
         stdDeviation="0.23953081"
         id="feGaussianBlur3953" />
    </filter>
    <linearGradient
       inkscape:collect="always"
       xlink:href="#linearGradient3799"
       id="linearGradient3971"
       gradientUnits="userSpaceOnUse"
       gradientTransform="translate(44.1,0.10000002)"
       x1="8.3000002"
       y1="4.8999996"
       x2="8.1999998"
       y2="26.4" />
    <linearGradient
       inkscape:collect="always"
       xlink:href="#linearGradient3799"
       id="linearGradient3974"
       gradientUnits="userSpaceOnUse"
       gradientTransform="translate(44.1,0.10000002)"
       x1="8.3000002"
       y1="4.8999996"
       x2="8.1999998"
       y2="26.4" />
    <linearGradient
       inkscape:collect="always"
       xlink:href="#linearGradient3799"
       id="linearGradient3977"
       gradientUnits="userSpaceOnUse"
       gradientTransform="translate(44.1,0.10000002)"
       x1="8.3000002"
       y1="4.8999996"
       x2="8.1999998"
       y2="26.4" />
    <linearGradient
       inkscape:collect="always"
       xlink:href="#linearGradient3799"
       id="linearGradient3980"
       gradientUnits="userSpaceOnUse"
       gradientTransform="translate(44.1,0.10000002)"
       x1="8.3000002"
       y1="4.8999996"
       x2="8.1999998"
       y2="26.4" />
    <linearGradient
       inkscape:collect="always"
       xlink:href="#linearGradient3927"
       id="linearGradient3987"
       gradientUnits="userSpaceOnUse"
       x1="23.106222"
       y1="5.9443426"
       x2="26.559555"
       y2="6.1443424"
       gradientTransform="translate(12,0)" />
    <linearGradient
       inkscape:collect="always"
       xlink:href="#linearGradient3892"
       id="linearGradient3989"
       gradientUnits="userSpaceOnUse"
       x1="23.299559"
       y1="24.06101"
       x2="26.699558"
       y2="25.461012"
       gradientTransform="translate(12,0)" />
    <linearGradient
       inkscape:collect="always"
       xlink:href="#linearGradient3799"
       id="linearGradient3991"
       gradientUnits="userSpaceOnUse"
       gradientTransform="translate(0.1,0.10000002)"
       x1="8.3000002"
       y1="4.8999996"
       x2="8.1999998"
       y2="26.4" />
  </defs>
  <sodipodi:namedview
     id="base"
     pagecolor="#ffffff"
     bordercolor="#666666"
     borderopacity="1.0"
     inkscape:pageopacity="0.0"
     inkscape:pageshadow="2"
     inkscape:zoom="15"
     inkscape:cx="25.462505"
     inkscape:cy="10.479824"
     inkscape:current-layer="layer1"
     showgrid="true"
     inkscape:grid-bbox="true"
     inkscape:document-units="px"
     inkscape:window-width="1388"
     inkscape:window-height="856"
     inkscape:window-x="52"
     inkscape:window-y="0"
     inkscape:window-maximized="1"
     showguides="true"
     inkscape:guide-bbox="true" />
  <metadata
     id="metadata3006">
    <rdf:RDF>
      <cc:Work
         rdf:about="">
        <dc:format>image/svg+xml</dc:format>
        <dc:type
           rdf:resource="http://purl.org/dc/dcmitype/StillImage" />
        <dc:title></dc:title>
      </cc:Work>
    </rdf:RDF>
  </metadata>
  <g
     id="layer1"
     inkscape:label="Layer 1"
     inkscape:groupmode="layer">
    <path
       sodipodi:nodetypes="ccsc"
       inkscape:connector-curvature="0"
       id="path3983"
       d="m 37.066669,2.4943427 -0.06667,4.7885414 c -0.001,0.02675 0,0.051175 0,0.078125 0,1.3807114 1.342947,2.5000002 2.999556,2.5000002"
       style="opacity:0.80000000000000004;fill:none;stroke:url(#linearGradient3987);stroke-opacity:1;filter:url(#filter3923);stroke-width:1.28241457;stroke-miterlimit:4;stroke-dasharray:none"
       transform="matrix(0.77977904,0,0,0.77977904,-3.0192902,0.32766096)" />
    <path
       style="opacity:0.80000000000000004;fill:none;stroke:url(#linearGradient3989);stroke-opacity:1;filter:url(#filter3900);stroke-width:1.48395311;stroke-miterlimit:4;stroke-dasharray:none"
       d="m 39.999557,21.861009 c -1.481871,0 -2.693885,0.906129 -2.937065,2.083334 l -0.06249,0 0,0.416666 0,4.921875 c -0.001,0.02675 0,0.05118 0,0.07813 0,1.380712 1.342947,2.5 2.999556,2.5 1.656608,0 2.999555,-1.119288 2.999555,-2.5 0,-0.02695 10e-4,-0.05137 0,-0.07813 l 0,-4.921875 0,-0.416666 -0.06249,0 C 42.69344,22.767138 41.481426,21.861009 39.999557,21.861009 z"
       id="path3985"
       inkscape:connector-curvature="0"
       transform="matrix(0.67387574,0,0,0.67387574,1.0448267,9.4411116)" />
    <rect
       y="30"
       x="2.9333334"
       height="2"
       width="22.133335"
       id="rect3786"
       style="opacity:0.4;fill:url(#linearGradient3788);fill-opacity:1;fill-rule:nonzero;stroke:none;filter:url(#filter3951)"
       transform="matrix(1.0702885,0,0,1,-1.1494974,0)" />
    <rect
       style="fill:url(#linearGradient3874);fill-opacity:1;fill-rule:nonzero;stroke:none"
       id="rect3864"
       width="28"
       height="28"
       x="78"
       y="2" />
    <path
       style="opacity:0.3;fill:#000000;fill-opacity:1;fill-rule:nonzero;stroke:none"
       d="m 105.73289,-0.0056574 c -0.98792,0 -1.79593,0.7249028 -1.95805,1.6666667 l -0.0417,0 0,0.3333333 0,3.9374998 c -6.6e-4,0.0214 0,0.04094 0,0.0625 0,1.1045692 0.8953,2.0000002 1.99971,2.0000002 1.10441,0 1.9997,-0.895431 1.9997,-2.0000002 0,-0.02156 6.7e-4,-0.0411 0,-0.0625 l 0,-3.9374998 0,-0.3333333 -0.0417,0 c -0.16212,-0.9417639 -0.97012,-1.6666667 -1.95804,-1.6666667 z"
       id="path3868"
       inkscape:connector-curvature="0" />
    <path
       inkscape:connector-curvature="0"
       id="path3955"
       d="m 77.73289,-0.0056574 c -0.98792,0 -1.79593,0.7249028 -1.95805,1.6666667 l -0.0417,0 0,0.3333333 0,3.9374998 c -6.6e-4,0.0214 0,0.04094 0,0.0625 0,1.1045692 0.8953,2.0000002 1.99971,2.0000002 1.10441,0 1.9997,-0.895431 1.9997,-2.0000002 0,-0.02156 6.7e-4,-0.0411 0,-0.0625 l 0,-3.9374998 0,-0.3333333 -0.0417,0 C 79.52873,0.7192454 78.72073,-0.0056574 77.73281,-0.0056574 z"
       style="opacity:0.3;fill:#000000;fill-opacity:1;fill-rule:nonzero;stroke:none" />
    <path
       style="opacity:0.3;fill:#000000;fill-opacity:1;fill-rule:nonzero;stroke:none"
       d="m 77.73289,23.994343 c -0.98792,0 -1.79593,0.724902 -1.95805,1.666666 l -0.0417,0 0,0.333334 0,3.937499 c -6.6e-4,0.0214 0,0.04094 0,0.0625 0,1.10457 0.8953,2.000001 1.99971,2.000001 1.10441,0 1.9997,-0.895431 1.9997,-2.000001 0,-0.02156 6.7e-4,-0.0411 0,-0.0625 l 0,-3.937499 0,-0.333334 -0.0417,0 c -0.16212,-0.941764 -0.97012,-1.666666 -1.95804,-1.666666 z"
       id="path3957"
       inkscape:connector-curvature="0" />
    <path
       inkscape:connector-curvature="0"
       id="path3959"
       d="m 105.73289,23.994343 c -0.98792,0 -1.79593,0.724902 -1.95805,1.666666 l -0.0417,0 0,0.333334 0,3.937499 c -6.6e-4,0.0214 0,0.04094 0,0.0625 0,1.10457 0.8953,2.000001 1.99971,2.000001 1.10441,0 1.9997,-0.895431 1.9997,-2.000001 0,-0.02156 6.7e-4,-0.0411 0,-0.0625 l 0,-3.937499 0,-0.333334 -0.0417,0 c -0.16212,-0.941764 -0.97012,-1.666666 -1.95804,-1.666666 z"
       style="opacity:0.3;fill:#000000;fill-opacity:1;fill-rule:nonzero;stroke:none" />
    <path
       style="fill:url(#linearGradient3991);fill-opacity:1;fill-rule:nonzero;stroke:none"
       d="m 1.71875,2 0,3.9375 c 6.7e-4,0.0214 0,0.04094 0,0.0625 0,1.0087316 -0.748021,1.8315664 -1.71875,1.96875 l 0,16.0625 c 0.860727,0.119366 1.540614,0.771729 1.6875,1.625 l 0.03125,0 0,0.34375 0,3.9375 c 6.7e-4,0.0214 0,0.04094 0,0.0625 l 24,0 c 0,-0.02156 -6.6e-4,-0.0411 0,-0.0625 l 0,-3.9375 0,-0.34375 0.0625,0 C 25.94337,24.714486 26.73083,24 27.71875,24 27.81158,24 27.910733,24.01887 28,24.03125 L 28,7.96875 C 27.907773,7.9817835 27.814574,8 27.71875,8 c -1.10441,0 -2,-0.8954308 -2,-2 0,-0.02156 -6.6e-4,-0.0411 0,-0.0625 l 0,-3.9375 -24,0 z"
       id="rect3961"
       inkscape:connector-curvature="0" />
    <path
       style="opacity:0.2;fill:none;stroke:#00db00;stroke-width:1.14861691;stroke-linecap:butt;stroke-linejoin:miter;stroke-miterlimit:4;stroke-opacity:1;stroke-dasharray:none"
       d="m 35.607006,2.047955 0,27.957693"
       id="path3903"
       inkscape:connector-curvature="0" />
    <path
       inkscape:connector-curvature="0"
       id="path3905"
       d="m 31.791474,1.9910997 0,28.0265923"
       style="opacity:0.2;fill:none;stroke:#c00000;stroke-width:1.19318378;stroke-linecap:butt;stroke-linejoin:miter;stroke-miterlimit:4;stroke-opacity:1;stroke-dasharray:none"
       inkscape:export-xdpi="90"
       inkscape:export-ydpi="90" />
    <path
       inkscape:connector-curvature="0"
       id="path4005"
       d="m 0.47395656,8.0643784 0,15.8662486"
       style="opacity:0.20000000000000001;fill:none;stroke:#00db00;stroke-width:0.94791311000000000;stroke-linecap:butt;stroke-linejoin:miter;stroke-miterlimit:4;stroke-opacity:1;stroke-dasharray:none" />
    <path
       style="opacity:0.20000000000000001;fill:none;stroke:#00db00;stroke-width:0.94791311000000000;stroke-linecap:butt;stroke-linejoin:miter;stroke-miterlimit:4;stroke-opacity:1;stroke-dasharray:none"
       d="m 27.526043,8.0643784 0,15.8662486"
       id="path4007"
       inkscape:connector-curvature="0"
       inkscape:export-xdpi="90"
       inkscape:export-ydpi="90" />
  </g>
</svg>
