<?xml version="1.0" encoding="UTF-8" standalone="no"?>
<!-- Created with Inkscape (http://www.inkscape.org/) -->

<svg
   xmlns:dc="http://purl.org/dc/elements/1.1/"
   xmlns:cc="http://creativecommons.org/ns#"
   xmlns:rdf="http://www.w3.org/1999/02/22-rdf-syntax-ns#"
   xmlns:svg="http://www.w3.org/2000/svg"
   xmlns="http://www.w3.org/2000/svg"
   xmlns:xlink="http://www.w3.org/1999/xlink"
   xmlns:sodipodi="http://sodipodi.sourceforge.net/DTD/sodipodi-0.dtd"
   xmlns:inkscape="http://www.inkscape.org/namespaces/inkscape"
   width="28"
   height="32"
   id="svg3001"
   version="1.1"
   inkscape:version="0.48.2 r9819"
   sodipodi:docname="tape_field.svg"
   inkscape:export-filename="/Users/nils/Documents/Studium/Teamprojekt/Teamprojekt-WS2011-12/src/pc/tape/images/tape_field.png"
   inkscape:export-xdpi="90"
   inkscape:export-ydpi="90">
  <defs
     id="defs3003">
    <linearGradient
       inkscape:collect="always"
       id="linearGradient3879">
      <stop
         style="stop-color:#000000;stop-opacity:1;"
         offset="0"
         id="stop3881" />
      <stop
         style="stop-color:#000000;stop-opacity:0;"
         offset="1"
         id="stop3883" />
    </linearGradient>
    <linearGradient
       inkscape:collect="always"
       id="linearGradient3835">
      <stop
         style="stop-color:#000000;stop-opacity:1;"
         offset="0"
         id="stop3837" />
      <stop
         style="stop-color:#000000;stop-opacity:0;"
         offset="1"
         id="stop3839" />
    </linearGradient>
    <linearGradient
       id="linearGradient3799">
      <stop
         style="stop-color:#f9f9f6;stop-opacity:1;"
         offset="0"
         id="stop3801" />
      <stop
         style="stop-color:#fdf7ed;stop-opacity:1;"
         offset="1"
         id="stop3803" />
    </linearGradient>
    <linearGradient
       inkscape:collect="always"
       xlink:href="#linearGradient3799"
       id="linearGradient3769"
       gradientUnits="userSpaceOnUse"
       x1="11.5"
       y1="2.4000008"
       x2="12.099999"
       y2="31.200001"
       gradientTransform="matrix(1,0,0,1.010274,0.2,-0.61232877)" />
    <filter
       inkscape:collect="always"
       id="filter3789"
       x="-0.018678392"
       width="1.0373568"
       y="-0.49559999"
       height="1.9912">
      <feGaussianBlur
         inkscape:collect="always"
         stdDeviation="0.30974999"
         id="feGaussianBlur3791" />
    </filter>
    <linearGradient
       inkscape:collect="always"
       xlink:href="#linearGradient3799"
       id="linearGradient3820"
       gradientUnits="userSpaceOnUse"
       gradientTransform="matrix(1,0,0,1.010274,0.2,-0.61232877)"
       x1="11.5"
       y1="2.4000008"
       x2="12.099999"
       y2="31.200001" />
    <linearGradient
       inkscape:collect="always"
       xlink:href="#linearGradient3835"
       id="linearGradient3841"
       x1="34.967625"
       y1="1.071875"
       x2="38.008854"
       y2="3.2591307"
       gradientUnits="userSpaceOnUse"
       gradientTransform="translate(-12,0)" />
    <filter
       inkscape:collect="always"
       id="filter3875"
       x="-0.14882353"
       width="1.2976471"
       y="-0.1005298"
       height="1.2010596">
      <feGaussianBlur
         inkscape:collect="always"
         stdDeviation="0.19765625"
         id="feGaussianBlur3877" />
    </filter>
    <linearGradient
       inkscape:collect="always"
       xlink:href="#linearGradient3879"
       id="linearGradient3885"
       x1="-35.075718"
       y1="1.5671262"
       x2="-23.484291"
       y2="11.235722"
       gradientUnits="userSpaceOnUse" />
    <filter
       inkscape:collect="always"
       id="filter3895"
       x="-0.11484375"
       width="1.2296875"
       y="-0.12564103"
       height="1.2512821">
      <feGaussianBlur
         inkscape:collect="always"
         stdDeviation="0.6125"
         id="feGaussianBlur3897" />
    </filter>
    <linearGradient
       inkscape:collect="always"
       xlink:href="#linearGradient3799"
       id="linearGradient3899"
       gradientUnits="userSpaceOnUse"
       gradientTransform="matrix(1,0,0,1.010274,0.2,-0.61232877)"
       x1="11.5"
       y1="2.4000008"
       x2="12.099999"
       y2="31.200001" />
  </defs>
  <sodipodi:namedview
     id="base"
     pagecolor="#ffffff"
     bordercolor="#666666"
     borderopacity="1.0"
     inkscape:pageopacity="0.0"
     inkscape:pageshadow="2"
     inkscape:zoom="10"
     inkscape:cx="13.862505"
     inkscape:cy="13.833333"
     inkscape:current-layer="layer1"
     showgrid="true"
     inkscape:grid-bbox="true"
     inkscape:document-units="px"
     inkscape:window-width="1387"
     inkscape:window-height="856"
     inkscape:window-x="53"
     inkscape:window-y="0"
     inkscape:window-maximized="1" />
  <metadata
     id="metadata3006">
    <rdf:RDF>
      <cc:Work
         rdf:about="">
        <dc:format>image/svg+xml</dc:format>
        <dc:type
           rdf:resource="http://purl.org/dc/dcmitype/StillImage" />
        <dc:title></dc:title>
      </cc:Work>
    </rdf:RDF>
  </metadata>
  <g
     id="layer1"
     inkscape:label="Layer 1"
     inkscape:groupmode="layer">
    <path
       id="path3816"
       d="m 24.71875,1.8125 c -0.877386,0 -1.59375,0.666764 -1.59375,1.46875 0,0.1002483 0.01009,0.1867202 0.03125,0.28125 l 0,1.21875 C 23.13509,4.87578 23.125,4.9622517 23.125,5.0625 c 0,0.1002483 0.01009,0.2179702 0.03125,0.3125 l 0,0.03125 c 0.159813,0.6475711 0.805754,1.125 1.5625,1.125 0.877386,0 1.59375,-0.666764 1.59375,-1.46875 0,-0.1336643 -0.02551,-0.2520786 -0.0625,-0.375 l 0,-1.03125 c 0.03699,-0.1229214 0.0625,-0.2413357 0.0625,-0.375 0,-0.801986 -0.716364,-1.46875 -1.59375,-1.46875 z"
       style="opacity:0.5;fill:none;stroke:url(#linearGradient3841);stroke-width:0.5;stroke-linecap:butt;stroke-linejoin:miter;stroke-miterlimit:4;stroke-opacity:1;stroke-dasharray:none;filter:url(#filter3875)"
       inkscape:connector-curvature="0"
       transform="matrix(0.92534098,0,0,0.92534098,1.8709945,0.14649081)" />
    <path
       transform="matrix(0.24822635,0,0,0.24822635,9.514862,25.1546)"
       d="m -21,8.5500002 a 6.4000001,5.8499999 0 1 1 -12.8,0 6.4000001,5.8499999 0 1 1 12.8,0 z"
       sodipodi:ry="5.8499999"
       sodipodi:rx="6.4000001"
       sodipodi:cy="8.5500002"
       sodipodi:cx="-27.4"
       id="path3818"
       style="opacity:0.5;fill:none;stroke:url(#linearGradient3885);stroke-width:2.01429057;stroke-linecap:butt;stroke-linejoin:miter;stroke-miterlimit:4;stroke-opacity:1;stroke-dasharray:none;filter:url(#filter3895)"
       sodipodi:type="arc" />
    <rect
       style="opacity:0.5;fill:#000000;fill-opacity:1;fill-rule:nonzero;stroke:#ffffff;stroke-width:0.2;stroke-linecap:butt;stroke-linejoin:miter;stroke-miterlimit:4;stroke-opacity:1;stroke-dasharray:none;filter:url(#filter3789)"
       id="rect3787"
       width="39.799999"
       height="1.5"
       x="-5.9000001"
       y="29.6" />
    <path
       style="fill:url(#linearGradient3899);fill-opacity:1;fill-rule:nonzero;stroke:none"
       d="m -6,0.59375 0,29.5 40,0 0,-29.5 -40,0 z M 24.71875,1.8125 c 0.877386,0 1.59375,0.666764 1.59375,1.46875 0,0.1336643 -0.02551,0.2520786 -0.0625,0.375 l 0,1.03125 c 0.03699,0.1229214 0.0625,0.2413357 0.0625,0.375 0,0.801986 -0.716364,1.46875 -1.59375,1.46875 -0.756746,0 -1.402687,-0.4774289 -1.5625,-1.125 l 0,-0.03125 C 23.135088,5.2804702 23.125,5.1627483 23.125,5.0625 c 0,-0.1002483 0.01009,-0.1867202 0.03125,-0.28125 l 0,-1.21875 C 23.135088,3.4679702 23.125,3.3814983 23.125,3.28125 c 0,-0.801986 0.716364,-1.46875 1.59375,-1.46875 z m -22,24 c 0.8773864,0 1.59375,0.666764 1.59375,1.46875 0,0.801986 -0.7163636,1.4375 -1.59375,1.4375 -0.8773864,0 -1.59375,-0.635514 -1.59375,-1.4375 0,-0.801986 0.7163636,-1.46875 1.59375,-1.46875 z"
       id="rect3013"
       inkscape:connector-curvature="0" />
    <path
       style="fill:none;stroke:#00db00;stroke-width:1;stroke-linecap:butt;stroke-linejoin:miter;stroke-miterlimit:4;stroke-opacity:1;stroke-dasharray:none;opacity:0.2"
       d="M 2.733333,0.76666667 2.733333,25.3"
       id="path3903"
       inkscape:connector-curvature="0" />
    <path
       inkscape:connector-curvature="0"
       id="path3905"
       d="m 24.733333,7.4526318 0,22.6708672"
       style="fill:none;stroke:#c00000;stroke-width:0.96129297999999996;stroke-linecap:butt;stroke-linejoin:miter;stroke-miterlimit:4;stroke-opacity:1;stroke-dasharray:none;opacity:0.2" />
  </g>
</svg>
